<svg xmlns="http://www.w3.org/2000/svg" width="1458" height="1740">
 <!-- Created with Image Occlusion Enhanced -->
 <g>
  <title>Labels</title>
 </g>
 <g>
  <title>Masks</title>
  <rect id="020652ecfe8d47188d8a224ee07cc870-oa-1" height="33.33333" width="23.33333" y="520" x="178.66669" stroke="#2D2D2D" fill="#ff0000"/>
  <rect id="020652ecfe8d47188d8a224ee07cc870-oa-2" height="33.33333" width="30" y="556.66666" x="625.33336" stroke="#2D2D2D" fill="#ff0000"/>
  <rect id="020652ecfe8d47188d8a224ee07cc870-oa-3" height="33.33333" width="40" y="676.66666" x="452.00003" stroke="#2D2D2D" fill="#ff0000"/>
  <rect id="020652ecfe8d47188d8a224ee07cc870-oa-4" height="36.66667" width="33.33333" y="996.66667" x="675.33336" stroke="#2D2D2D" fill="#ff0000"/>
  <rect id="020652ecfe8d47188d8a224ee07cc870-oa-5" height="33.33333" width="216.66667" y="996.66667" x="885.33337" stroke="#2D2D2D" fill="#ff0000"/>
  <rect id="020652ecfe8d47188d8a224ee07cc870-oa-6" height="30" width="26.66667" y="1036.66667" x="188.66669" stroke="#2D2D2D" fill="#ff0000"/>
  <rect id="020652ecfe8d47188d8a224ee07cc870-oa-7" height="33.33333" width="116.66667" y="1036.66667" x="488.66669" stroke="#2D2D2D" fill="#ff0000"/>
  <rect id="020652ecfe8d47188d8a224ee07cc870-oa-8" height="33.33333" width="20" y="1076.66667" x="718.6667" stroke="#2D2D2D" fill="#ff0000"/>
  <rect id="020652ecfe8d47188d8a224ee07cc870-oa-9" height="30" width="20" y="1073.33334" x="828.6667" stroke="#2D2D2D" fill="#ff0000"/>
  <rect id="020652ecfe8d47188d8a224ee07cc870-oa-10" height="33.33333" width="26.66667" y="1073.33334" x="1262.00004" stroke="#2D2D2D" fill="#ff0000"/>
  <rect id="020652ecfe8d47188d8a224ee07cc870-oa-11" height="33.33333" width="30" y="1153.33334" x="452.00003" stroke="#2D2D2D" fill="#ff0000"/>
  <rect id="020652ecfe8d47188d8a224ee07cc870-oa-12" height="40" width="36.66667" y="1150" x="688.6667" stroke="#2D2D2D" fill="#ff0000"/>
  <rect id="020652ecfe8d47188d8a224ee07cc870-oa-13" height="33.33333" width="26.66667" y="1196.66667" x="295.33336" stroke="#2D2D2D" fill="#ff0000"/>
  <rect id="020652ecfe8d47188d8a224ee07cc870-oa-14" height="40" width="20" y="1353.33334" x="755.33336" stroke="#2D2D2D" fill="#ff0000"/>
  <rect id="020652ecfe8d47188d8a224ee07cc870-oa-15" height="23.33333" width="16.66667" y="1436.66667" x="732.00003" stroke="#2D2D2D" fill="#ff0000"/>
  <rect id="020652ecfe8d47188d8a224ee07cc870-oa-16" height="30" width="100" y="1433.33334" x="1008.6667" stroke="#2D2D2D" fill="#ff0000"/>
  <rect id="020652ecfe8d47188d8a224ee07cc870-oa-17" height="23.33333" width="70" y="1476.66668" x="1065.33337" stroke="#2D2D2D" fill="#ff0000"/>
 </g>
</svg>