<svg xmlns="http://www.w3.org/2000/svg" width="1366" height="1681.9999999999998">
 <!-- Created with Image Occlusion Enhanced -->
 <g>
  <title>Labels</title>
 </g>
 <g>
  <title>Masks</title>
  <rect id="0a0615ad418f4cdda0473afb2fb0ef0c-oa-1" height="35.48387" width="61.29032" y="195.41942" x="675.93552" stroke="#2D2D2D" fill="#ff0000"/>
  <rect id="0a0615ad418f4cdda0473afb2fb0ef0c-oa-2" height="35.48387" width="25.80645" y="192.19361" x="930.77424" stroke="#2D2D2D" fill="#ff0000"/>
  <rect id="0a0615ad418f4cdda0473afb2fb0ef0c-oa-3" height="32.25807" width="51.6129" y="263.16135" x="679.16133" stroke="#2D2D2D" fill="#ff0000"/>
  <rect id="0a0615ad418f4cdda0473afb2fb0ef0c-oa-4" height="32.25807" width="32.25807" y="263.16135" x="930.77424" stroke="#2D2D2D" fill="#ff0000"/>
  <rect id="0a0615ad418f4cdda0473afb2fb0ef0c-oa-5" height="29.03226" width="35.48387" y="330.90329" x="679.16133" stroke="#2D2D2D" fill="#ff0000"/>
  <rect id="0a0615ad418f4cdda0473afb2fb0ef0c-oa-6" height="25.80645" width="45.16129" y="334.1291" x="937.22586" stroke="#2D2D2D" fill="#ff0000"/>
  <rect id="0a0615ad418f4cdda0473afb2fb0ef0c-oa-7" height="29.03226" width="25.80645" y="459.93555" x="934.00005" stroke="#2D2D2D" fill="#ff0000"/>
  <rect id="0a0615ad418f4cdda0473afb2fb0ef0c-oa-8" height="29.03226" width="22.58065" y="640.58072" x="934.00005" stroke="#2D2D2D" fill="#ff0000"/>
  <rect id="0a0615ad418f4cdda0473afb2fb0ef0c-oa-9" height="29.03226" width="48.3871" y="637.35491" x="724.32262" stroke="#2D2D2D" fill="#ff0000"/>
  <rect id="0a0615ad418f4cdda0473afb2fb0ef0c-oa-10" height="29.03226" width="35.48387" y="766.38718" x="930.77424" stroke="#2D2D2D" fill="#ff0000"/>
  <rect id="0a0615ad418f4cdda0473afb2fb0ef0c-oa-11" height="25.80645" width="51.6129" y="950.25815" x="675.93552" stroke="#2D2D2D" fill="#ff0000"/>
  <rect id="0a0615ad418f4cdda0473afb2fb0ef0c-oa-12" height="35.48387" width="22.58065" y="947.03234" x="930.77424" stroke="#2D2D2D" fill="#ff0000"/>
  <rect id="0a0615ad418f4cdda0473afb2fb0ef0c-oa-13" height="35.48387" width="58.06452" y="1018.00009" x="679.16133" stroke="#2D2D2D" fill="#ff0000"/>
  <rect id="0a0615ad418f4cdda0473afb2fb0ef0c-oa-14" height="25.80645" width="48.3871" y="1024.4517" x="930.77424" stroke="#2D2D2D" fill="#ff0000"/>
  <rect id="0a0615ad418f4cdda0473afb2fb0ef0c-oa-15" height="25.80645" width="58.06452" y="1156.70977" x="930.77424" stroke="#2D2D2D" fill="#ff0000"/>
  <rect id="0a0615ad418f4cdda0473afb2fb0ef0c-oa-16" height="29.03226" width="38.70968" y="1237.35493" x="930.77424" stroke="#2D2D2D" fill="#ff0000"/>
  <rect id="0a0615ad418f4cdda0473afb2fb0ef0c-oa-17" height="48.3871" width="35.48387" y="1298.64526" x="934.00005" stroke="#2D2D2D" fill="#ff0000"/>
  <rect id="0a0615ad418f4cdda0473afb2fb0ef0c-oa-18" height="35.48387" width="45.16129" y="1382.51623" x="924.32263" stroke="#2D2D2D" fill="#ff0000"/>
  <rect id="0a0615ad418f4cdda0473afb2fb0ef0c-oa-19" height="29.03226" width="32.25807" y="1527.67752" x="937.22586" stroke="#2D2D2D" fill="#ff0000"/>
  <rect id="0a0615ad418f4cdda0473afb2fb0ef0c-oa-20" height="19.35484" width="29.03226" y="1601.87108" x="937.22586" stroke="#2D2D2D" fill="#ff0000"/>
 </g>
</svg>