<svg xmlns="http://www.w3.org/2000/svg" width="1396" height="1794">
 <!-- Created with Image Occlusion Enhanced -->
 <g>
  <title>Labels</title>
 </g>
 <g>
  <title>Masks</title>
  <rect id="0e9853c161fd4f5ba8080aac3ff744c7-oa-1" height="44.82759" width="110.34483" y="85.31029" x="555.72416" stroke="#2D2D2D" fill="#ff0000"/>
  <rect id="0e9853c161fd4f5ba8080aac3ff744c7-oa-2" height="31.03448" width="79.31035" y="188.75856" x="569.51726" stroke="#2D2D2D" fill="#ff0000"/>
  <rect id="0e9853c161fd4f5ba8080aac3ff744c7-oa-3" height="31.03448" width="213.79311" y="264.62063" x="566.06898" stroke="#2D2D2D" fill="#ff0000"/>
  <rect id="0e9853c161fd4f5ba8080aac3ff744c7-oa-4" height="31.03448" width="113.7931" y="347.37925" x="566.06898" stroke="#2D2D2D" fill="#ff0000"/>
  <rect id="0e9853c161fd4f5ba8080aac3ff744c7-oa-5" height="34.48276" width="213.79311" y="426.6896" x="562.62071" stroke="#2D2D2D" fill="#ff0000"/>
  <rect id="0e9853c161fd4f5ba8080aac3ff744c7-oa-6" height="31.03448" width="89.65517" y="509.44822" x="566.06898" stroke="#2D2D2D" fill="#ff0000"/>
  <rect id="0e9853c161fd4f5ba8080aac3ff744c7-oa-7" height="37.93103" width="89.65517" y="585.31029" x="562.62071" stroke="#2D2D2D" fill="#ff0000"/>
  <rect id="0e9853c161fd4f5ba8080aac3ff744c7-oa-8" height="37.93103" width="82.75862" y="668.06891" x="569.51726" stroke="#2D2D2D" fill="#ff0000"/>
  <rect id="0e9853c161fd4f5ba8080aac3ff744c7-oa-9" height="34.48276" width="175.86207" y="750.82753" x="566.06898" stroke="#2D2D2D" fill="#ff0000"/>
  <rect id="0e9853c161fd4f5ba8080aac3ff744c7-oa-10" height="24.13793" width="120.68966" y="833.58616" x="566.06898" stroke="#2D2D2D" fill="#ff0000"/>
  <rect id="0e9853c161fd4f5ba8080aac3ff744c7-oa-11" height="37.93103" width="103.44828" y="912.8965" x="572.96554" stroke="#2D2D2D" fill="#ff0000"/>
  <rect id="0e9853c161fd4f5ba8080aac3ff744c7-oa-12" height="31.03448" width="93.10345" y="992.20685" x="569.51726" stroke="#2D2D2D" fill="#ff0000"/>
  <rect id="0e9853c161fd4f5ba8080aac3ff744c7-oa-13" height="31.03448" width="75.86207" y="1074.96547" x="566.06898" stroke="#2D2D2D" fill="#ff0000"/>
  <rect id="0e9853c161fd4f5ba8080aac3ff744c7-oa-14" height="34.48276" width="106.89655" y="1154.27581" x="569.51726" stroke="#2D2D2D" fill="#ff0000"/>
  <rect id="0e9853c161fd4f5ba8080aac3ff744c7-oa-15" height="37.93103" width="96.55173" y="1237.03444" x="566.06898" stroke="#2D2D2D" fill="#ff0000"/>
  <rect id="0e9853c161fd4f5ba8080aac3ff744c7-oa-16" height="34.48276" width="72.41379" y="1323.24133" x="572.96554" stroke="#2D2D2D" fill="#ff0000"/>
  <rect id="0e9853c161fd4f5ba8080aac3ff744c7-oa-17" height="24.13793" width="96.55173" y="1409.44823" x="569.51726" stroke="#2D2D2D" fill="#ff0000"/>
  <rect id="0e9853c161fd4f5ba8080aac3ff744c7-oa-18" height="41.37931" width="186.2069" y="1485.3103" x="566.06898" stroke="#2D2D2D" fill="#ff0000"/>
  <rect id="0e9853c161fd4f5ba8080aac3ff744c7-oa-19" height="24.13793" width="110.34483" y="1571.5172" x="566.06898" stroke="#2D2D2D" fill="#ff0000"/>
  <rect id="0e9853c161fd4f5ba8080aac3ff744c7-oa-20" height="31.03448" width="158.62069" y="1650.82754" x="569.51726" stroke="#2D2D2D" fill="#ff0000"/>
  <rect id="0e9853c161fd4f5ba8080aac3ff744c7-oa-21" height="44.82759" width="234.48276" y="1726.68961" x="566.06898" stroke="#2D2D2D" fill="#ff0000"/>
 </g>
</svg>