<svg xmlns="http://www.w3.org/2000/svg" width="1966" height="964">
 <!-- Created with Image Occlusion Enhanced -->
 <g>
  <title>Labels</title>
 </g>
 <g>
  <title>Masks</title>
  <rect id="2d1def4baa2346c4a7f5851080a10283-oa-1" height="40.98361" width="150.81968" y="229.44267" x="930.72129" stroke="#2D2D2D" fill="#ff0000"/>
  <rect id="2d1def4baa2346c4a7f5851080a10283-oa-2" height="42.62295" width="472.13117" y="229.44267" x="1260.22949" stroke="#2D2D2D" fill="#ff0000"/>
  <rect id="2d1def4baa2346c4a7f5851080a10283-oa-3" height="37.70492" width="149.18033" y="380.26235" x="925.80325" stroke="#2D2D2D" fill="#ff0000"/>
  <rect id="2d1def4baa2346c4a7f5851080a10283-oa-4" height="50.81967" width="449.18034" y="378.623" x="1268.42622" stroke="#2D2D2D" fill="#ff0000"/>
  <rect id="2d1def4baa2346c4a7f5851080a10283-oa-5" height="44.2623" width="180.32788" y="465.50825" x="78.26224" stroke="#2D2D2D" fill="#ff0000"/>
  <rect id="2d1def4baa2346c4a7f5851080a10283-oa-6" height="49.18033" width="104.91804" y="496.65579" x="681.54095" stroke="#2D2D2D" fill="#ff0000"/>
  <rect id="2d1def4baa2346c4a7f5851080a10283-oa-7" height="106.55738" width="227.86886" y="508.1312" x="930.72129" stroke="#2D2D2D" fill="#ff0000"/>
  <rect id="2d1def4baa2346c4a7f5851080a10283-oa-8" height="62.29508" width="309.83608" y="517.96727" x="1263.50818" stroke="#2D2D2D" fill="#ff0000"/>
  <rect id="2d1def4baa2346c4a7f5851080a10283-oa-9" height="55.73771" width="165.57378" y="657.31154" x="88.0983" stroke="#2D2D2D" fill="#ff0000"/>
  <rect id="2d1def4baa2346c4a7f5851080a10283-oa-10" height="49.18033" width="152.45902" y="668.78695" x="445.47537" stroke="#2D2D2D" fill="#ff0000"/>
  <rect id="2d1def4baa2346c4a7f5851080a10283-oa-11" height="55.73771" width="218.0328" y="690.09842" x="930.72129" stroke="#2D2D2D" fill="#ff0000"/>
  <rect id="2d1def4baa2346c4a7f5851080a10283-oa-12" height="45.90164" width="447.541" y="665.50826" x="1261.86884" stroke="#2D2D2D" fill="#ff0000"/>
  <rect id="2d1def4baa2346c4a7f5851080a10283-oa-13" height="39.34426" width="160.65574" y="806.49187" x="65.14748" stroke="#2D2D2D" fill="#ff0000"/>
  <rect id="2d1def4baa2346c4a7f5851080a10283-oa-14" height="42.62295" width="231.14755" y="858.95089" x="447.11471" stroke="#2D2D2D" fill="#ff0000"/>
  <rect id="2d1def4baa2346c4a7f5851080a10283-oa-15" height="70.49181" width="132.78689" y="837.63941" x="932.36063" stroke="#2D2D2D" fill="#ff0000"/>
 </g>
</svg>