<svg xmlns="http://www.w3.org/2000/svg" width="1408" height="1780">
 <!-- Created with Image Occlusion Enhanced -->
 <g>
  <title>Labels</title>
 </g>
 <g>
  <title>Masks</title>
  <rect id="371e5eb4512a4cd69e1af2867cdf5197-oa-1" height="24.13793" width="175.86207" y="26.8965" x="960.96547" stroke="#2D2D2D" fill="#ff0000"/>
  <rect id="371e5eb4512a4cd69e1af2867cdf5197-oa-2" height="24.13793" width="210.34482" y="61.37926" x="929.93099" stroke="#2D2D2D" fill="#ff0000"/>
  <rect id="371e5eb4512a4cd69e1af2867cdf5197-oa-3" height="24.13793" width="37.93103" y="102.75857" x="933.37927" stroke="#2D2D2D" fill="#ff0000"/>
  <rect id="371e5eb4512a4cd69e1af2867cdf5197-oa-4" height="24.13793" width="213.7931" y="140.68961" x="681.65513" stroke="#2D2D2D" fill="#ff0000"/>
  <rect id="371e5eb4512a4cd69e1af2867cdf5197-oa-5" height="24.13793" width="203.44827" y="182.06892" x="771.31031" stroke="#2D2D2D" fill="#ff0000"/>
  <rect id="371e5eb4512a4cd69e1af2867cdf5197-oa-6" height="24.13793" width="417.24137" y="216.55167" x="791.99996" stroke="#2D2D2D" fill="#ff0000"/>
  <rect id="371e5eb4512a4cd69e1af2867cdf5197-oa-7" height="31.03448" width="286.20689" y="251.03443" x="633.37927" stroke="#2D2D2D" fill="#ff0000"/>
  <rect id="371e5eb4512a4cd69e1af2867cdf5197-oa-8" height="31.03448" width="206.89655" y="292.41374" x="581.65514" stroke="#2D2D2D" fill="#ff0000"/>
  <rect id="371e5eb4512a4cd69e1af2867cdf5197-oa-9" height="17.24138" width="72.41379" y="333.79305" x="795.44824" stroke="#2D2D2D" fill="#ff0000"/>
  <rect id="371e5eb4512a4cd69e1af2867cdf5197-oa-10" height="24.13793" width="268.96551" y="368.27581" x="733.37927" stroke="#2D2D2D" fill="#ff0000"/>
  <rect id="371e5eb4512a4cd69e1af2867cdf5197-oa-11" height="31.03448" width="79.31034" y="402.75857" x="764.41375" stroke="#2D2D2D" fill="#ff0000"/>
  <rect id="371e5eb4512a4cd69e1af2867cdf5197-oa-12" height="13.7931" width="206.89655" y="451.03443" x="764.41375" stroke="#2D2D2D" fill="#ff0000"/>
  <rect id="371e5eb4512a4cd69e1af2867cdf5197-oa-13" height="17.24138" width="120.68965" y="488.96546" x="643.7241" stroke="#2D2D2D" fill="#ff0000"/>
  <rect id="371e5eb4512a4cd69e1af2867cdf5197-oa-14" height="31.03448" width="417.24137" y="519.99994" x="557.51721" stroke="#2D2D2D" fill="#ff0000"/>
  <rect id="371e5eb4512a4cd69e1af2867cdf5197-oa-15" height="27.58621" width="406.89654" y="557.93098" x="878.20686" stroke="#2D2D2D" fill="#ff0000"/>
  <rect id="371e5eb4512a4cd69e1af2867cdf5197-oa-16" height="24.13793" width="375.86206" y="595.86201" x="674.75858" stroke="#2D2D2D" fill="#ff0000"/>
  <rect id="371e5eb4512a4cd69e1af2867cdf5197-oa-17" height="24.13793" width="189.65517" y="637.24132" x="850.62065" stroke="#2D2D2D" fill="#ff0000"/>
  <rect id="371e5eb4512a4cd69e1af2867cdf5197-oa-18" height="27.58621" width="179.31034" y="671.72408" x="802.34479" stroke="#2D2D2D" fill="#ff0000"/>
  <rect id="371e5eb4512a4cd69e1af2867cdf5197-oa-19" height="20.68965" width="220.68965" y="716.55166" x="736.82755" stroke="#2D2D2D" fill="#ff0000"/>
  <rect id="371e5eb4512a4cd69e1af2867cdf5197-oa-20" height="13.7931" width="68.96552" y="754.4827" x="974.75858" stroke="#2D2D2D" fill="#ff0000"/>
  <rect id="371e5eb4512a4cd69e1af2867cdf5197-oa-21" height="31.03448" width="362.06896" y="816.55166" x="747.17238" stroke="#2D2D2D" fill="#ff0000"/>
  <rect id="371e5eb4512a4cd69e1af2867cdf5197-oa-22" height="27.58621" width="324.13793" y="854.4827" x="588.55169" stroke="#2D2D2D" fill="#ff0000"/>
  <rect id="371e5eb4512a4cd69e1af2867cdf5197-oa-23" height="20.68965" width="289.65517" y="895.86201" x="709.24134" stroke="#2D2D2D" fill="#ff0000"/>
  <rect id="371e5eb4512a4cd69e1af2867cdf5197-oa-24" height="24.13793" width="134.48276" y="930.34476" x="788.55168" stroke="#2D2D2D" fill="#ff0000"/>
  <rect id="371e5eb4512a4cd69e1af2867cdf5197-oa-25" height="24.13793" width="244.82758" y="968.2758" x="947.17237" stroke="#2D2D2D" fill="#ff0000"/>
  <rect id="371e5eb4512a4cd69e1af2867cdf5197-oa-26" height="24.13793" width="93.10345" y="1009.65511" x="674.75858" stroke="#2D2D2D" fill="#ff0000"/>
  <rect id="371e5eb4512a4cd69e1af2867cdf5197-oa-27" height="20.68965" width="103.44827" y="1047.58614" x="898.89651" stroke="#2D2D2D" fill="#ff0000"/>
  <rect id="371e5eb4512a4cd69e1af2867cdf5197-oa-28" height="17.24138" width="75.86207" y="1088.96545" x="581.65514" stroke="#2D2D2D" fill="#ff0000"/>
  <rect id="371e5eb4512a4cd69e1af2867cdf5197-oa-29" height="20.68965" width="237.93103" y="1123.44821" x="609.24134" stroke="#2D2D2D" fill="#ff0000"/>
  <rect id="371e5eb4512a4cd69e1af2867cdf5197-oa-30" height="27.58621" width="220.68965" y="1161.37924" x="974.75858" stroke="#2D2D2D" fill="#ff0000"/>
  <rect id="371e5eb4512a4cd69e1af2867cdf5197-oa-31" height="17.24138" width="110.34483" y="1202.75855" x="519.58617" stroke="#2D2D2D" fill="#ff0000"/>
  <rect id="371e5eb4512a4cd69e1af2867cdf5197-oa-32" height="31.03448" width="179.31034" y="1233.79303" x="671.31031" stroke="#2D2D2D" fill="#ff0000"/>
  <rect id="371e5eb4512a4cd69e1af2867cdf5197-oa-33" height="24.13793" width="234.48275" y="1275.17234" x="940.27582" stroke="#2D2D2D" fill="#ff0000"/>
  <rect id="371e5eb4512a4cd69e1af2867cdf5197-oa-34" height="20.68965" width="100" y="1313.10338" x="809.24134" stroke="#2D2D2D" fill="#ff0000"/>
  <rect id="371e5eb4512a4cd69e1af2867cdf5197-oa-35" height="24.13793" width="117.24138" y="1351.03441" x="774.75858" stroke="#2D2D2D" fill="#ff0000"/>
  <rect id="371e5eb4512a4cd69e1af2867cdf5197-oa-36" height="27.58621" width="110.34483" y="1388.96545" x="733.37927" stroke="#2D2D2D" fill="#ff0000"/>
  <rect id="371e5eb4512a4cd69e1af2867cdf5197-oa-37" height="17.24138" width="289.65517" y="1430.34475" x="778.20686" stroke="#2D2D2D" fill="#ff0000"/>
  <rect id="371e5eb4512a4cd69e1af2867cdf5197-oa-38" height="20.68965" width="224.13793" y="1471.72406" x="612.68962" stroke="#2D2D2D" fill="#ff0000"/>
  <rect id="371e5eb4512a4cd69e1af2867cdf5197-oa-39" height="27.58621" width="251.72413" y="1506.20682" x="654.06893" stroke="#2D2D2D" fill="#ff0000"/>
  <rect id="371e5eb4512a4cd69e1af2867cdf5197-oa-40" height="17.24138" width="279.31034" y="1544.13786" x="647.17238" stroke="#2D2D2D" fill="#ff0000"/>
  <rect id="371e5eb4512a4cd69e1af2867cdf5197-oa-41" height="20.68965" width="189.65517" y="1582.06889" x="802.34479" stroke="#2D2D2D" fill="#ff0000"/>
  <rect id="371e5eb4512a4cd69e1af2867cdf5197-oa-42" height="20.68965" width="272.41379" y="1619.99992" x="705.79307" stroke="#2D2D2D" fill="#ff0000"/>
  <rect id="371e5eb4512a4cd69e1af2867cdf5197-oa-43" height="20.68965" width="244.82758" y="1657.93096" x="781.65513" stroke="#2D2D2D" fill="#ff0000"/>
  <rect id="371e5eb4512a4cd69e1af2867cdf5197-oa-44" height="20.68965" width="217.24138" y="1699.31027" x="740.27582" stroke="#2D2D2D" fill="#ff0000"/>
  <rect id="371e5eb4512a4cd69e1af2867cdf5197-oa-45" height="27.58621" width="117.24138" y="1733.79303" x="781.65513" stroke="#2D2D2D" fill="#ff0000"/>
 </g>
</svg>