<svg xmlns="http://www.w3.org/2000/svg" width="1398" height="1798">
 <!-- Created with Image Occlusion Enhanced -->
 <g>
  <title>Labels</title>
 </g>
 <g>
  <title>Masks</title>
  <rect id="3f637f08e57d40c8b9155e2d3b5f104a-oa-1" height="33.33333" width="190.90909" y="392.90896" x="38.36365" stroke="#2D2D2D" fill="#ff0000"/>
  <rect id="3f637f08e57d40c8b9155e2d3b5f104a-oa-2" height="33.33333" width="84.84849" y="320.18169" x="292.9091" stroke="#2D2D2D" fill="#ff0000"/>
  <rect id="3f637f08e57d40c8b9155e2d3b5f104a-oa-3" height="30.30303" width="190.90909" y="408.06048" x="511.09092" stroke="#2D2D2D" fill="#ff0000"/>
  <rect id="3f637f08e57d40c8b9155e2d3b5f104a-oa-4" height="36.36364" width="90.90909" y="392.90896" x="786.8485" stroke="#2D2D2D" fill="#ff0000"/>
  <rect id="3f637f08e57d40c8b9155e2d3b5f104a-oa-5" height="69.69697" width="163.63636" y="286.84836" x="1174.72729" stroke="#2D2D2D" fill="#ff0000"/>
  <rect id="3f637f08e57d40c8b9155e2d3b5f104a-oa-6" height="36.36364" width="90.90909" y="811.09079" x="29.27274" stroke="#2D2D2D" fill="#ff0000"/>
  <rect id="3f637f08e57d40c8b9155e2d3b5f104a-oa-7" height="27.27273" width="169.69697" y="771.69685" x="511.09092" stroke="#2D2D2D" fill="#ff0000"/>
  <rect id="3f637f08e57d40c8b9155e2d3b5f104a-oa-8" height="33.33333" width="45.45455" y="832.30291" x="735.33335" stroke="#2D2D2D" fill="#ff0000"/>
  <rect id="3f637f08e57d40c8b9155e2d3b5f104a-oa-9" height="36.36364" width="69.69697" y="829.2726" x="947.45456" stroke="#2D2D2D" fill="#ff0000"/>
  <rect id="3f637f08e57d40c8b9155e2d3b5f104a-oa-10" height="27.27273" width="112.12121" y="765.63624" x="1174.72729" stroke="#2D2D2D" fill="#ff0000"/>
  <rect id="3f637f08e57d40c8b9155e2d3b5f104a-oa-11" height="33.33333" width="48.48485" y="1159.57564" x="741.39396" stroke="#2D2D2D" fill="#ff0000"/>
  <rect id="3f637f08e57d40c8b9155e2d3b5f104a-oa-12" height="75.75758" width="145.45455" y="1205.03018" x="32.30304" stroke="#2D2D2D" fill="#ff0000"/>
  <rect id="3f637f08e57d40c8b9155e2d3b5f104a-oa-13" height="78.78788" width="239.39394" y="1583.81807" x="29.27274" stroke="#2D2D2D" fill="#ff0000"/>
  <rect id="3f637f08e57d40c8b9155e2d3b5f104a-oa-14" height="39.39394" width="93.93939" y="1620.1817" x="738.36365" stroke="#2D2D2D" fill="#ff0000"/>
  <rect id="3f637f08e57d40c8b9155e2d3b5f104a-oa-15" height="87.87879" width="136.36364" y="1571.69685" x="1168.66669" stroke="#2D2D2D" fill="#ff0000"/>
 </g>
</svg>