<svg xmlns="http://www.w3.org/2000/svg" width="1966" height="1800">
 <!-- Created with Image Occlusion Enhanced -->
 <g>
  <title>Labels</title>
 </g>
 <g>
  <title>Masks</title>
  <rect id="402d07f729ea462db715225b1be178fb-oa-1" height="38.46154" width="350" y="126.92308" x="1003.23075" stroke="#2D2D2D" fill="#ff0000"/>
  <rect id="402d07f729ea462db715225b1be178fb-oa-2" height="42.30769" width="342.30769" y="207.69231" x="1007.0769" stroke="#2D2D2D" fill="#ff0000"/>
  <rect id="402d07f729ea462db715225b1be178fb-oa-3" height="42.30769" width="353.84615" y="300" x="999.38459" stroke="#2D2D2D" fill="#ff0000"/>
  <rect id="402d07f729ea462db715225b1be178fb-oa-4" height="53.84615" width="296.15385" y="403.84615" x="995.53844" stroke="#2D2D2D" fill="#ff0000"/>
  <rect id="402d07f729ea462db715225b1be178fb-oa-5" height="46.15385" width="276.92308" y="515.38462" x="991.69229" stroke="#2D2D2D" fill="#ff0000"/>
  <rect id="402d07f729ea462db715225b1be178fb-oa-6" height="30.76923" width="346.15385" y="615.38462" x="999.38459" stroke="#2D2D2D" fill="#ff0000"/>
  <rect id="402d07f729ea462db715225b1be178fb-oa-7" height="100" width="857.69231" y="707.69231" x="1003.23075" stroke="#2D2D2D" fill="#ff0000"/>
  <rect id="402d07f729ea462db715225b1be178fb-oa-8" height="53.84615" width="361.53846" y="838.46154" x="1003.23075" stroke="#2D2D2D" fill="#ff0000"/>
  <rect id="402d07f729ea462db715225b1be178fb-oa-9" height="38.46154" width="376.92308" y="980.76923" x="1003.23075" stroke="#2D2D2D" fill="#ff0000"/>
  <rect id="402d07f729ea462db715225b1be178fb-oa-10" height="38.46154" width="161.53846" y="1115.38462" x="1007.0769" stroke="#2D2D2D" fill="#ff0000"/>
  <rect id="402d07f729ea462db715225b1be178fb-oa-11" height="53.84615" width="84.61538" y="1196.15385" x="999.38459" stroke="#2D2D2D" fill="#ff0000"/>
  <rect id="402d07f729ea462db715225b1be178fb-oa-12" height="46.15385" width="88.46154" y="1292.30769" x="991.69229" stroke="#2D2D2D" fill="#ff0000"/>
  <rect id="402d07f729ea462db715225b1be178fb-oa-13" height="50" width="103.84615" y="1376.92308" x="1003.23075" stroke="#2D2D2D" fill="#ff0000"/>
  <rect id="402d07f729ea462db715225b1be178fb-oa-14" height="46.15385" width="353.84615" y="1465.38462" x="1003.23075" stroke="#2D2D2D" fill="#ff0000"/>
  <rect id="402d07f729ea462db715225b1be178fb-oa-15" height="34.61538" width="330.76923" y="1557.69231" x="1003.23075" stroke="#2D2D2D" fill="#ff0000"/>
  <rect id="402d07f729ea462db715225b1be178fb-oa-16" height="57.69231" width="296.15385" y="1657.69231" x="999.38459" stroke="#2D2D2D" fill="#ff0000"/>
 </g>
</svg>