<svg xmlns="http://www.w3.org/2000/svg" width="2192" height="1420">
 <!-- Created with Image Occlusion Enhanced -->
 <g>
  <title>Labels</title>
 </g>
 <g>
  <title>Masks</title>
  <rect id="47e2094475044afaa743b6e7643f0a99-oa-1" height="44.44444" width="86.11111" y="32.77772" x="1221.88891" stroke="#2D2D2D" fill="#ff0000"/>
  <rect id="47e2094475044afaa743b6e7643f0a99-oa-2" height="38.88889" width="75" y="102.22217" x="1044.11113" stroke="#2D2D2D" fill="#ff0000"/>
  <rect id="47e2094475044afaa743b6e7643f0a99-oa-3" height="41.66667" width="213.88889" y="96.66661" x="1208.00002" stroke="#2D2D2D" fill="#ff0000"/>
  <rect id="47e2094475044afaa743b6e7643f0a99-oa-4" height="38.88889" width="130.55556" y="166.11106" x="1333.00002" stroke="#2D2D2D" fill="#ff0000"/>
  <rect id="47e2094475044afaa743b6e7643f0a99-oa-5" height="41.66667" width="202.77778" y="229.99995" x="1505.22225" stroke="#2D2D2D" fill="#ff0000"/>
  <rect id="47e2094475044afaa743b6e7643f0a99-oa-6" height="36.11111" width="91.66667" y="296.66661" x="905.22224" stroke="#2D2D2D" fill="#ff0000"/>
  <rect id="47e2094475044afaa743b6e7643f0a99-oa-7" height="44.44444" width="252.77778" y="357.77772" x="1060.7778" stroke="#2D2D2D" fill="#ff0000"/>
  <rect id="47e2094475044afaa743b6e7643f0a99-oa-8" height="33.33333" width="77.77778" y="424.44439" x="1516.33336" stroke="#2D2D2D" fill="#ff0000"/>
  <rect id="47e2094475044afaa743b6e7643f0a99-oa-9" height="36.11111" width="180.55556" y="485.5555" x="946.88891" stroke="#2D2D2D" fill="#ff0000"/>
  <rect id="47e2094475044afaa743b6e7643f0a99-oa-10" height="36.11111" width="175" y="554.99995" x="1102.44446" stroke="#2D2D2D" fill="#ff0000"/>
  <rect id="47e2094475044afaa743b6e7643f0a99-oa-11" height="30.55556" width="502.77778" y="618.88884" x="1019.11113" stroke="#2D2D2D" fill="#ff0000"/>
  <rect id="47e2094475044afaa743b6e7643f0a99-oa-12" height="36.11111" width="219.44445" y="682.77773" x="1002.44446" stroke="#2D2D2D" fill="#ff0000"/>
  <rect id="47e2094475044afaa743b6e7643f0a99-oa-13" height="33.33333" width="211.11111" y="749.44439" x="849.66669" stroke="#2D2D2D" fill="#ff0000"/>
  <rect id="47e2094475044afaa743b6e7643f0a99-oa-14" height="44.44444" width="188.88889" y="807.77773" x="1141.33335" stroke="#2D2D2D" fill="#ff0000"/>
  <rect id="47e2094475044afaa743b6e7643f0a99-oa-15" height="41.66667" width="458.33334" y="868.88884" x="1505.22225" stroke="#2D2D2D" fill="#ff0000"/>
  <rect id="47e2094475044afaa743b6e7643f0a99-oa-16" height="27.77778" width="455.55556" y="935.55551" x="1177.44447" stroke="#2D2D2D" fill="#ff0000"/>
  <rect id="47e2094475044afaa743b6e7643f0a99-oa-17" height="36.11111" width="80.55556" y="999.4444" x="1344.11113" stroke="#2D2D2D" fill="#ff0000"/>
  <rect id="47e2094475044afaa743b6e7643f0a99-oa-18" height="44.44444" width="111.11111" y="996.66662" x="1483.00002" stroke="#2D2D2D" fill="#ff0000"/>
  <rect id="47e2094475044afaa743b6e7643f0a99-oa-19" height="41.66667" width="94.44445" y="1060.55551" x="1463.55558" stroke="#2D2D2D" fill="#ff0000"/>
  <rect id="47e2094475044afaa743b6e7643f0a99-oa-20" height="47.22222" width="244.44445" y="1124.4444" x="894.11113" stroke="#2D2D2D" fill="#ff0000"/>
  <rect id="47e2094475044afaa743b6e7643f0a99-oa-21" height="41.66667" width="241.66667" y="1193.88884" x="866.33335" stroke="#2D2D2D" fill="#ff0000"/>
  <rect id="47e2094475044afaa743b6e7643f0a99-oa-22" height="36.11111" width="305.55556" y="1260.55551" x="1341.33336" stroke="#2D2D2D" fill="#ff0000"/>
  <rect id="47e2094475044afaa743b6e7643f0a99-oa-23" height="36.11111" width="297.22222" y="1324.4444" x="980.22224" stroke="#2D2D2D" fill="#ff0000"/>
 </g>
</svg>