<svg xmlns="http://www.w3.org/2000/svg" width="1804" height="1459.9999999999998">
 <!-- Created with Image Occlusion Enhanced -->
 <g>
  <title>Labels</title>
 </g>
 <g>
  <title>Masks</title>
  <rect id="4964d08394764e8e8982255db23ea231-oa-1" height="43.90244" width="75.60976" y="149.75616" x="878.92677" stroke="#2D2D2D" fill="#ff0000"/>
  <rect id="4964d08394764e8e8982255db23ea231-oa-2" height="46.34147" width="158.53659" y="147.31714" x="1222.82923" stroke="#2D2D2D" fill="#ff0000"/>
  <rect id="4964d08394764e8e8982255db23ea231-oa-3" height="46.34147" width="153.65854" y="152.19519" x="17.95113" stroke="#2D2D2D" fill="#ff0000"/>
  <rect id="4964d08394764e8e8982255db23ea231-oa-4" height="51.21951" width="219.5122" y="242.43909" x="8.19503" stroke="#2D2D2D" fill="#ff0000"/>
  <rect id="4964d08394764e8e8982255db23ea231-oa-5" height="34.14634" width="80.48781" y="254.63422" x="854.53653" stroke="#2D2D2D" fill="#ff0000"/>
  <rect id="4964d08394764e8e8982255db23ea231-oa-6" height="51.21951" width="158.53659" y="242.43909" x="1232.58533" stroke="#2D2D2D" fill="#ff0000"/>
  <rect id="4964d08394764e8e8982255db23ea231-oa-7" height="46.34147" width="219.5122" y="396.09764" x="10.63406" stroke="#2D2D2D" fill="#ff0000"/>
  <rect id="4964d08394764e8e8982255db23ea231-oa-8" height="34.14634" width="60.97561" y="398.53666" x="849.65848" stroke="#2D2D2D" fill="#ff0000"/>
  <rect id="4964d08394764e8e8982255db23ea231-oa-9" height="41.46342" width="195.12196" y="374.14642" x="1232.58533" stroke="#2D2D2D" fill="#ff0000"/>
  <rect id="4964d08394764e8e8982255db23ea231-oa-10" height="53.65854" width="260.97562" y="630.24399" x="15.51211" stroke="#2D2D2D" fill="#ff0000"/>
  <rect id="4964d08394764e8e8982255db23ea231-oa-11" height="48.78049" width="192.68293" y="630.24399" x="435.02432" stroke="#2D2D2D" fill="#ff0000"/>
  <rect id="4964d08394764e8e8982255db23ea231-oa-12" height="58.53659" width="175.60976" y="625.36594" x="1225.26825" stroke="#2D2D2D" fill="#ff0000"/>
  <rect id="4964d08394764e8e8982255db23ea231-oa-13" height="48.78049" width="224.39025" y="852.19522" x="15.51211" stroke="#2D2D2D" fill="#ff0000"/>
  <rect id="4964d08394764e8e8982255db23ea231-oa-14" height="53.65854" width="63.41464" y="822.92692" x="949.65848" stroke="#2D2D2D" fill="#ff0000"/>
  <rect id="4964d08394764e8e8982255db23ea231-oa-15" height="56.09756" width="173.17074" y="854.63424" x="1222.82923" stroke="#2D2D2D" fill="#ff0000"/>
  <rect id="4964d08394764e8e8982255db23ea231-oa-16" height="60.97561" width="256.09757" y="1083.90254" x="17.95113" stroke="#2D2D2D" fill="#ff0000"/>
  <rect id="4964d08394764e8e8982255db23ea231-oa-17" height="48.78049" width="95.12196" y="1083.90254" x="427.70724" stroke="#2D2D2D" fill="#ff0000"/>
  <rect id="4964d08394764e8e8982255db23ea231-oa-18" height="60.97561" width="182.92684" y="1081.46352" x="1227.70728" stroke="#2D2D2D" fill="#ff0000"/>
  <rect id="4964d08394764e8e8982255db23ea231-oa-19" height="56.09756" width="217.07318" y="1271.70743" x="3.31698" stroke="#2D2D2D" fill="#ff0000"/>
  <rect id="4964d08394764e8e8982255db23ea231-oa-20" height="51.21951" width="97.56098" y="1274.14645" x="871.6097" stroke="#2D2D2D" fill="#ff0000"/>
  <rect id="4964d08394764e8e8982255db23ea231-oa-21" height="46.34147" width="151.21952" y="1276.58548" x="1220.3902" stroke="#2D2D2D" fill="#ff0000"/>
  <rect id="4964d08394764e8e8982255db23ea231-oa-22" height="48.78049" width="236.58538" y="1381.46353" x="5.75601" stroke="#2D2D2D" fill="#ff0000"/>
  <rect id="4964d08394764e8e8982255db23ea231-oa-23" height="41.46342" width="107.31708" y="1376.58548" x="856.97555" stroke="#2D2D2D" fill="#ff0000"/>
  <rect id="4964d08394764e8e8982255db23ea231-oa-24" height="65.85366" width="219.5122" y="1371.70743" x="1222.82923" stroke="#2D2D2D" fill="#ff0000"/>
 </g>
</svg>