<svg xmlns="http://www.w3.org/2000/svg" width="1534" height="1766">
 <!-- Created with Image Occlusion Enhanced -->
 <g>
  <title>Labels</title>
 </g>
 <g>
  <title>Masks</title>
  <rect id="4d9e5093991746988606bbd8f79c3696-oa-1" height="24.13793" width="41.37931" y="44.34472" x="728.06904" stroke="#2D2D2D" fill="#ff0000"/>
  <rect id="4d9e5093991746988606bbd8f79c3696-oa-2" height="31.03448" width="93.10345" y="85.72404" x="521.17248" stroke="#2D2D2D" fill="#ff0000"/>
  <rect id="4d9e5093991746988606bbd8f79c3696-oa-3" height="27.58621" width="241.37932" y="130.55162" x="590.138" stroke="#2D2D2D" fill="#ff0000"/>
  <rect id="4d9e5093991746988606bbd8f79c3696-oa-4" height="24.13793" width="206.89656" y="171.93094" x="86.68971" stroke="#2D2D2D" fill="#ff0000"/>
  <rect id="4d9e5093991746988606bbd8f79c3696-oa-5" height="27.58621" width="48.27586" y="247.79301" x="886.68973" stroke="#2D2D2D" fill="#ff0000"/>
  <rect id="4d9e5093991746988606bbd8f79c3696-oa-6" height="24.13793" width="137.93104" y="296.06887" x="90.13798" stroke="#2D2D2D" fill="#ff0000"/>
  <rect id="4d9e5093991746988606bbd8f79c3696-oa-7" height="31.03448" width="131.03449" y="333.99991" x="872.89663" stroke="#2D2D2D" fill="#ff0000"/>
  <rect id="4d9e5093991746988606bbd8f79c3696-oa-8" height="24.13793" width="96.55173" y="337.44818" x="1059.10353" stroke="#2D2D2D" fill="#ff0000"/>
  <rect id="4d9e5093991746988606bbd8f79c3696-oa-9" height="31.03448" width="193.10345" y="413.31025" x="90.13798" stroke="#2D2D2D" fill="#ff0000"/>
  <rect id="4d9e5093991746988606bbd8f79c3696-oa-10" height="27.58621" width="379.31036" y="492.6206" x="90.13798" stroke="#2D2D2D" fill="#ff0000"/>
  <rect id="4d9e5093991746988606bbd8f79c3696-oa-11" height="20.68966" width="262.06897" y="585.72405" x="462.55179" stroke="#2D2D2D" fill="#ff0000"/>
  <rect id="4d9e5093991746988606bbd8f79c3696-oa-12" height="17.24138" width="148.27587" y="589.17233" x="931.51732" stroke="#2D2D2D" fill="#ff0000"/>
  <rect id="4d9e5093991746988606bbd8f79c3696-oa-13" height="27.58621" width="168.96552" y="627.10336" x="841.86215" stroke="#2D2D2D" fill="#ff0000"/>
  <rect id="4d9e5093991746988606bbd8f79c3696-oa-14" height="24.13793" width="141.37932" y="671.93095" x="945.31043" stroke="#2D2D2D" fill="#ff0000"/>
  <rect id="4d9e5093991746988606bbd8f79c3696-oa-15" height="24.13793" width="65.51724" y="713.31026" x="507.37938" stroke="#2D2D2D" fill="#ff0000"/>
  <rect id="4d9e5093991746988606bbd8f79c3696-oa-16" height="20.68966" width="41.37931" y="799.51716" x="521.17248" stroke="#2D2D2D" fill="#ff0000"/>
  <rect id="4d9e5093991746988606bbd8f79c3696-oa-17" height="27.58621" width="55.17242" y="840.89647" x="93.58626" stroke="#2D2D2D" fill="#ff0000"/>
  <rect id="4d9e5093991746988606bbd8f79c3696-oa-18" height="20.68966" width="324.13794" y="889.17234" x="90.13798" stroke="#2D2D2D" fill="#ff0000"/>
  <rect id="4d9e5093991746988606bbd8f79c3696-oa-19" height="24.13793" width="234.48277" y="930.55165" x="679.79318" stroke="#2D2D2D" fill="#ff0000"/>
  <rect id="4d9e5093991746988606bbd8f79c3696-oa-20" height="27.58621" width="248.27587" y="975.37924" x="779.79318" stroke="#2D2D2D" fill="#ff0000"/>
  <rect id="4d9e5093991746988606bbd8f79c3696-oa-21" height="24.13793" width="341.37932" y="1020.20683" x="645.31042" stroke="#2D2D2D" fill="#ff0000"/>
  <rect id="4d9e5093991746988606bbd8f79c3696-oa-22" height="31.03448" width="62.06897" y="1058.13786" x="724.62076" stroke="#2D2D2D" fill="#ff0000"/>
  <rect id="4d9e5093991746988606bbd8f79c3696-oa-23" height="24.13793" width="431.0345" y="1106.41372" x="762.5518" stroke="#2D2D2D" fill="#ff0000"/>
  <rect id="4d9e5093991746988606bbd8f79c3696-oa-24" height="24.13793" width="220.68966" y="1151.24131" x="624.62076" stroke="#2D2D2D" fill="#ff0000"/>
  <rect id="4d9e5093991746988606bbd8f79c3696-oa-25" height="27.58621" width="27.58621" y="1189.17235" x="459.10351" stroke="#2D2D2D" fill="#ff0000"/>
  <rect id="4d9e5093991746988606bbd8f79c3696-oa-26" height="20.68966" width="17.24138" y="1237.44821" x="1114.27595" stroke="#2D2D2D" fill="#ff0000"/>
  <rect id="4d9e5093991746988606bbd8f79c3696-oa-27" height="31.03448" width="31.03448" y="1275.37925" x="472.89662" stroke="#2D2D2D" fill="#ff0000"/>
  <rect id="4d9e5093991746988606bbd8f79c3696-oa-28" height="27.58621" width="31.03448" y="1275.37925" x="997.03457" stroke="#2D2D2D" fill="#ff0000"/>
  <rect id="4d9e5093991746988606bbd8f79c3696-oa-29" height="24.13793" width="124.13794" y="1323.65511" x="828.06904" stroke="#2D2D2D" fill="#ff0000"/>
  <rect id="4d9e5093991746988606bbd8f79c3696-oa-30" height="27.58621" width="210.34483" y="1365.03442" x="766.00008" stroke="#2D2D2D" fill="#ff0000"/>
  <rect id="4d9e5093991746988606bbd8f79c3696-oa-31" height="24.13793" width="282.75863" y="1409.86201" x="662.5518" stroke="#2D2D2D" fill="#ff0000"/>
  <rect id="4d9e5093991746988606bbd8f79c3696-oa-32" height="24.13793" width="265.51725" y="1489.17236" x="531.51731" stroke="#2D2D2D" fill="#ff0000"/>
  <rect id="4d9e5093991746988606bbd8f79c3696-oa-33" height="20.68966" width="65.51724" y="1533.99995" x="759.10352" stroke="#2D2D2D" fill="#ff0000"/>
  <rect id="4d9e5093991746988606bbd8f79c3696-oa-34" height="27.58621" width="131.03449" y="1575.37926" x="534.96559" stroke="#2D2D2D" fill="#ff0000"/>
  <rect id="4d9e5093991746988606bbd8f79c3696-oa-35" height="20.68966" width="93.10345" y="1620.20685" x="614.27593" stroke="#2D2D2D" fill="#ff0000"/>
  <rect id="4d9e5093991746988606bbd8f79c3696-oa-36" height="37.93104" width="100" y="1702.96547" x="555.65524" stroke="#2D2D2D" fill="#ff0000"/>
 </g>
</svg>