<svg xmlns="http://www.w3.org/2000/svg" width="1432" height="1772">
 <!-- Created with Image Occlusion Enhanced -->
 <g>
  <title>Labels</title>
 </g>
 <g>
  <title>Masks</title>
  <rect id="540448669cd3400c96aa279aef2c7cc3-oa-1" height="20.68966" width="62.06897" y="21.10342" x="899.03449" stroke="#2D2D2D" fill="#ff0000"/>
  <rect id="540448669cd3400c96aa279aef2c7cc3-oa-2" height="20.68966" width="155.17241" y="55.58618" x="578.34483" stroke="#2D2D2D" fill="#ff0000"/>
  <rect id="540448669cd3400c96aa279aef2c7cc3-oa-3" height="24.13793" width="86.2069" y="93.51721" x="771.44828" stroke="#2D2D2D" fill="#ff0000"/>
  <rect id="540448669cd3400c96aa279aef2c7cc3-oa-4" height="27.58621" width="68.96552" y="131.44825" x="554.2069" stroke="#2D2D2D" fill="#ff0000"/>
  <rect id="540448669cd3400c96aa279aef2c7cc3-oa-5" height="24.13793" width="79.31035" y="134.89652" x="847.31035" stroke="#2D2D2D" fill="#ff0000"/>
  <rect id="540448669cd3400c96aa279aef2c7cc3-oa-6" height="20.68966" width="72.41379" y="172.82756" x="788.68966" stroke="#2D2D2D" fill="#ff0000"/>
  <rect id="540448669cd3400c96aa279aef2c7cc3-oa-7" height="20.68966" width="68.96552" y="210.75859" x="778.34483" stroke="#2D2D2D" fill="#ff0000"/>
  <rect id="540448669cd3400c96aa279aef2c7cc3-oa-8" height="24.13793" width="155.17241" y="248.68963" x="712.82759" stroke="#2D2D2D" fill="#ff0000"/>
  <rect id="540448669cd3400c96aa279aef2c7cc3-oa-9" height="20.68966" width="144.82759" y="286.62066" x="550.75863" stroke="#2D2D2D" fill="#ff0000"/>
  <rect id="540448669cd3400c96aa279aef2c7cc3-oa-10" height="24.13793" width="186.2069" y="324.5517" x="874.89656" stroke="#2D2D2D" fill="#ff0000"/>
  <rect id="540448669cd3400c96aa279aef2c7cc3-oa-11" height="24.13793" width="124.13793" y="359.03446" x="605.93104" stroke="#2D2D2D" fill="#ff0000"/>
  <rect id="540448669cd3400c96aa279aef2c7cc3-oa-12" height="17.24138" width="206.89655" y="400.41377" x="481.79311" stroke="#2D2D2D" fill="#ff0000"/>
  <rect id="540448669cd3400c96aa279aef2c7cc3-oa-13" height="27.58621" width="96.55172" y="438.3448" x="492.13794" stroke="#2D2D2D" fill="#ff0000"/>
  <rect id="540448669cd3400c96aa279aef2c7cc3-oa-14" height="27.58621" width="141.37931" y="476.27584" x="992.13794" stroke="#2D2D2D" fill="#ff0000"/>
  <rect id="540448669cd3400c96aa279aef2c7cc3-oa-15" height="24.13793" width="134.48276" y="514.20687" x="736.96552" stroke="#2D2D2D" fill="#ff0000"/>
  <rect id="540448669cd3400c96aa279aef2c7cc3-oa-16" height="24.13793" width="186.2069" y="552.1379" x="695.58621" stroke="#2D2D2D" fill="#ff0000"/>
  <rect id="540448669cd3400c96aa279aef2c7cc3-oa-17" height="27.58621" width="234.48276" y="590.06894" x="505.93104" stroke="#2D2D2D" fill="#ff0000"/>
  <rect id="540448669cd3400c96aa279aef2c7cc3-oa-18" height="20.68966" width="279.31035" y="631.44825" x="736.96552" stroke="#2D2D2D" fill="#ff0000"/>
  <rect id="540448669cd3400c96aa279aef2c7cc3-oa-19" height="27.58621" width="403.44828" y="665.93101" x="623.17242" stroke="#2D2D2D" fill="#ff0000"/>
  <rect id="540448669cd3400c96aa279aef2c7cc3-oa-20" height="24.13793" width="244.82759" y="703.86204" x="578.34483" stroke="#2D2D2D" fill="#ff0000"/>
  <rect id="540448669cd3400c96aa279aef2c7cc3-oa-21" height="20.68966" width="100" y="745.24135" x="833.51725" stroke="#2D2D2D" fill="#ff0000"/>
  <rect id="540448669cd3400c96aa279aef2c7cc3-oa-22" height="17.24138" width="148.27586" y="783.17239" x="664.55173" stroke="#2D2D2D" fill="#ff0000"/>
  <rect id="540448669cd3400c96aa279aef2c7cc3-oa-23" height="20.68966" width="244.82759" y="817.65515" x="768.00001" stroke="#2D2D2D" fill="#ff0000"/>
  <rect id="540448669cd3400c96aa279aef2c7cc3-oa-24" height="27.58621" width="110.34483" y="855.58618" x="892.13794" stroke="#2D2D2D" fill="#ff0000"/>
  <rect id="540448669cd3400c96aa279aef2c7cc3-oa-25" height="17.24138" width="182.75862" y="896.96549" x="943.86208" stroke="#2D2D2D" fill="#ff0000"/>
  <rect id="540448669cd3400c96aa279aef2c7cc3-oa-26" height="24.13793" width="51.72414" y="931.44825" x="988.68966" stroke="#2D2D2D" fill="#ff0000"/>
  <rect id="540448669cd3400c96aa279aef2c7cc3-oa-27" height="27.58621" width="65.51724" y="965.93101" x="1230.06897" stroke="#2D2D2D" fill="#ff0000"/>
  <rect id="540448669cd3400c96aa279aef2c7cc3-oa-28" height="24.13793" width="368.96552" y="1038.3448" x="630.06897" stroke="#2D2D2D" fill="#ff0000"/>
  <rect id="540448669cd3400c96aa279aef2c7cc3-oa-29" height="24.13793" width="210.34483" y="1076.27584" x="723.17242" stroke="#2D2D2D" fill="#ff0000"/>
  <rect id="540448669cd3400c96aa279aef2c7cc3-oa-30" height="20.68966" width="37.93103" y="1114.20687" x="885.24139" stroke="#2D2D2D" fill="#ff0000"/>
  <rect id="540448669cd3400c96aa279aef2c7cc3-oa-31" height="27.58621" width="289.65517" y="1152.13791" x="640.4138" stroke="#2D2D2D" fill="#ff0000"/>
  <rect id="540448669cd3400c96aa279aef2c7cc3-oa-32" height="20.68966" width="55.17241" y="1186.62067" x="640.4138" stroke="#2D2D2D" fill="#ff0000"/>
  <rect id="540448669cd3400c96aa279aef2c7cc3-oa-33" height="27.58621" width="131.03448" y="1224.5517" x="412.82759" stroke="#2D2D2D" fill="#ff0000"/>
  <rect id="540448669cd3400c96aa279aef2c7cc3-oa-34" height="27.58621" width="106.89655" y="1227.99998" x="826.6207" stroke="#2D2D2D" fill="#ff0000"/>
  <rect id="540448669cd3400c96aa279aef2c7cc3-oa-35" height="20.68966" width="203.44828" y="1296.96549" x="609.37932" stroke="#2D2D2D" fill="#ff0000"/>
  <rect id="540448669cd3400c96aa279aef2c7cc3-oa-36" height="20.68966" width="241.37931" y="1334.89653" x="688.68966" stroke="#2D2D2D" fill="#ff0000"/>
  <rect id="540448669cd3400c96aa279aef2c7cc3-oa-37" height="17.24138" width="113.7931" y="1372.82756" x="619.72414" stroke="#2D2D2D" fill="#ff0000"/>
  <rect id="540448669cd3400c96aa279aef2c7cc3-oa-38" height="24.13793" width="248.27586" y="1410.7586" x="654.2069" stroke="#2D2D2D" fill="#ff0000"/>
  <rect id="540448669cd3400c96aa279aef2c7cc3-oa-39" height="24.13793" width="217.24138" y="1445.24136" x="523.17242" stroke="#2D2D2D" fill="#ff0000"/>
  <rect id="540448669cd3400c96aa279aef2c7cc3-oa-40" height="17.24138" width="220.68966" y="1486.62067" x="602.48276" stroke="#2D2D2D" fill="#ff0000"/>
  <rect id="540448669cd3400c96aa279aef2c7cc3-oa-41" height="27.58621" width="213.7931" y="1524.5517" x="523.17242" stroke="#2D2D2D" fill="#ff0000"/>
  <rect id="540448669cd3400c96aa279aef2c7cc3-oa-42" height="13.7931" width="227.58621" y="1565.93101" x="726.6207" stroke="#2D2D2D" fill="#ff0000"/>
  <rect id="540448669cd3400c96aa279aef2c7cc3-oa-43" height="20.68966" width="189.65517" y="1603.86205" x="743.86208" stroke="#2D2D2D" fill="#ff0000"/>
  <rect id="540448669cd3400c96aa279aef2c7cc3-oa-44" height="20.68966" width="265.51724" y="1641.79308" x="709.37932" stroke="#2D2D2D" fill="#ff0000"/>
  <rect id="540448669cd3400c96aa279aef2c7cc3-oa-45" height="24.13793" width="168.96552" y="1672.82756" x="533.51725" stroke="#2D2D2D" fill="#ff0000"/>
  <rect id="540448669cd3400c96aa279aef2c7cc3-oa-46" height="20.68966" width="110.34483" y="1714.20687" x="654.2069" stroke="#2D2D2D" fill="#ff0000"/>
 </g>
</svg>