<svg xmlns="http://www.w3.org/2000/svg" width="1996.0000000000002" height="1736">
 <!-- Created with Image Occlusion Enhanced -->
 <g>
  <title>Labels</title>
 </g>
 <g>
  <title>Masks</title>
  <rect id="5b2c07fd20be4989acc9c54df780de0a-oa-1" height="44.11765" width="200" y="111.05885" x="21.64698" stroke="#2D2D2D" fill="#ff0000"/>
  <rect id="5b2c07fd20be4989acc9c54df780de0a-oa-2" height="41.17647" width="217.64706" y="216.94121" x="21.64698" stroke="#2D2D2D" fill="#ff0000"/>
  <rect id="5b2c07fd20be4989acc9c54df780de0a-oa-3" height="41.17647" width="294.11765" y="322.82356" x="456.9411" stroke="#2D2D2D" fill="#ff0000"/>
  <rect id="5b2c07fd20be4989acc9c54df780de0a-oa-4" height="44.11765" width="55.88235" y="425.76474" x="453.99993" stroke="#2D2D2D" fill="#ff0000"/>
  <rect id="5b2c07fd20be4989acc9c54df780de0a-oa-5" height="47.05882" width="214.70589" y="528.70592" x="803.99993" stroke="#2D2D2D" fill="#ff0000"/>
  <rect id="5b2c07fd20be4989acc9c54df780de0a-oa-6" height="41.17647" width="723.52942" y="628.70592" x="883.4117" stroke="#2D2D2D" fill="#ff0000"/>
  <rect id="5b2c07fd20be4989acc9c54df780de0a-oa-7" height="44.11765" width="288.2353" y="743.41181" x="1056.94111" stroke="#2D2D2D" fill="#ff0000"/>
  <rect id="5b2c07fd20be4989acc9c54df780de0a-oa-8" height="47.05882" width="329.41177" y="837.52945" x="27.52933" stroke="#2D2D2D" fill="#ff0000"/>
  <rect id="5b2c07fd20be4989acc9c54df780de0a-oa-9" height="58.82353" width="458.82354" y="937.52946" x="645.1764" stroke="#2D2D2D" fill="#ff0000"/>
  <rect id="5b2c07fd20be4989acc9c54df780de0a-oa-10" height="52.94118" width="261.76471" y="1043.41181" x="27.52933" stroke="#2D2D2D" fill="#ff0000"/>
  <rect id="5b2c07fd20be4989acc9c54df780de0a-oa-11" height="47.05882" width="226.47059" y="1252.23534" x="574.58816" stroke="#2D2D2D" fill="#ff0000"/>
  <rect id="5b2c07fd20be4989acc9c54df780de0a-oa-12" height="52.94118" width="232.35295" y="1355.17652" x="630.47052" stroke="#2D2D2D" fill="#ff0000"/>
  <rect id="5b2c07fd20be4989acc9c54df780de0a-oa-13" height="47.05882" width="279.41177" y="1452.23535" x="1348.11759" stroke="#2D2D2D" fill="#ff0000"/>
  <rect id="5b2c07fd20be4989acc9c54df780de0a-oa-14" height="52.94118" width="358.82354" y="1552.23535" x="974.58817" stroke="#2D2D2D" fill="#ff0000"/>
  <rect id="5b2c07fd20be4989acc9c54df780de0a-oa-15" height="50" width="388.2353" y="1658.1177" x="1471.647" stroke="#2D2D2D" fill="#ff0000"/>
 </g>
</svg>