<svg xmlns="http://www.w3.org/2000/svg" width="1556" height="1661.9999999999998">
 <!-- Created with Image Occlusion Enhanced -->
 <g>
  <title>Labels</title>
 </g>
 <g>
  <title>Masks</title>
  <rect id="64b6509a89794d028717afaa9a5bb76c-oa-1" height="38.88889" width="225.00001" y="382.44439" x="107.88897" stroke="#2D2D2D" fill="#ff0000"/>
  <rect id="64b6509a89794d028717afaa9a5bb76c-oa-2" height="44.44445" width="619.44447" y="376.88884" x="569.0001" stroke="#2D2D2D" fill="#ff0000"/>
  <rect id="64b6509a89794d028717afaa9a5bb76c-oa-3" height="36.11111" width="308.33335" y="515.77773" x="94.00008" stroke="#2D2D2D" fill="#ff0000"/>
  <rect id="64b6509a89794d028717afaa9a5bb76c-oa-4" height="41.66667" width="263.8889" y="510.22218" x="569.0001" stroke="#2D2D2D" fill="#ff0000"/>
  <rect id="64b6509a89794d028717afaa9a5bb76c-oa-5" height="38.88889" width="361.11113" y="640.77774" x="99.55563" stroke="#2D2D2D" fill="#ff0000"/>
  <rect id="64b6509a89794d028717afaa9a5bb76c-oa-6" height="36.11111" width="397.22224" y="637.99996" x="571.77788" stroke="#2D2D2D" fill="#ff0000"/>
  <rect id="64b6509a89794d028717afaa9a5bb76c-oa-7" height="47.22222" width="341.66668" y="754.66663" x="96.77786" stroke="#2D2D2D" fill="#ff0000"/>
  <rect id="64b6509a89794d028717afaa9a5bb76c-oa-8" height="44.44445" width="116.66667" y="751.88885" x="571.77788" stroke="#2D2D2D" fill="#ff0000"/>
  <rect id="64b6509a89794d028717afaa9a5bb76c-oa-9" height="50" width="294.44446" y="857.44442" x="94.00008" stroke="#2D2D2D" fill="#ff0000"/>
  <rect id="64b6509a89794d028717afaa9a5bb76c-oa-10" height="44.44445" width="377.7778" y="854.66664" x="566.22232" stroke="#2D2D2D" fill="#ff0000"/>
  <rect id="64b6509a89794d028717afaa9a5bb76c-oa-11" height="36.11111" width="263.8889" y="979.66664" x="94.00008" stroke="#2D2D2D" fill="#ff0000"/>
  <rect id="64b6509a89794d028717afaa9a5bb76c-oa-12" height="83.33334" width="483.33336" y="951.88886" x="566.22232" stroke="#2D2D2D" fill="#ff0000"/>
  <rect id="64b6509a89794d028717afaa9a5bb76c-oa-13" height="52.77778" width="288.8889" y="1074.11109" x="96.77786" stroke="#2D2D2D" fill="#ff0000"/>
  <rect id="64b6509a89794d028717afaa9a5bb76c-oa-14" height="36.11111" width="111.11112" y="1082.44443" x="566.22232" stroke="#2D2D2D" fill="#ff0000"/>
  <rect id="64b6509a89794d028717afaa9a5bb76c-oa-15" height="36.11111" width="183.33334" y="1171.33332" x="102.33341" stroke="#2D2D2D" fill="#ff0000"/>
  <rect id="64b6509a89794d028717afaa9a5bb76c-oa-16" height="50" width="427.7778" y="1168.55554" x="571.77788" stroke="#2D2D2D" fill="#ff0000"/>
  <rect id="64b6509a89794d028717afaa9a5bb76c-oa-17" height="47.22222" width="238.8889" y="1254.66666" x="107.88897" stroke="#2D2D2D" fill="#ff0000"/>
  <rect id="64b6509a89794d028717afaa9a5bb76c-oa-18" height="38.88889" width="694.44448" y="1251.88888" x="566.22232" stroke="#2D2D2D" fill="#ff0000"/>
  <rect id="64b6509a89794d028717afaa9a5bb76c-oa-19" height="41.66667" width="355.55557" y="1346.33333" x="94.00008" stroke="#2D2D2D" fill="#ff0000"/>
  <rect id="64b6509a89794d028717afaa9a5bb76c-oa-20" height="77.77778" width="761.11115" y="1329.66666" x="563.44455" stroke="#2D2D2D" fill="#ff0000"/>
  <rect id="64b6509a89794d028717afaa9a5bb76c-oa-21" height="38.88889" width="211.11112" y="1460.22222" x="96.77786" stroke="#2D2D2D" fill="#ff0000"/>
  <rect id="64b6509a89794d028717afaa9a5bb76c-oa-22" height="36.11111" width="280.55557" y="1449.11111" x="574.55566" stroke="#2D2D2D" fill="#ff0000"/>
  <rect id="64b6509a89794d028717afaa9a5bb76c-oa-23" height="47.22222" width="238.8889" y="1551.88889" x="102.33341" stroke="#2D2D2D" fill="#ff0000"/>
  <rect id="64b6509a89794d028717afaa9a5bb76c-oa-24" height="38.88889" width="616.6667" y="1560.22223" x="582.88899" stroke="#2D2D2D" fill="#ff0000"/>
 </g>
</svg>