<svg xmlns="http://www.w3.org/2000/svg" width="2062" height="1568">
 <!-- Created with Image Occlusion Enhanced -->
 <g>
  <title>Labels</title>
 </g>
 <g>
  <title>Masks</title>
  <rect id="701b0609bda54175acfc0ce06873a245-oa-1" height="194.73684" width="192.10526" y="518.842" x="88.00001" stroke="#2D2D2D" fill="#ff0000"/>
  <rect id="701b0609bda54175acfc0ce06873a245-oa-2" height="86.84211" width="192.10526" y="247.78937" x="330.10527" stroke="#2D2D2D" fill="#ff0000"/>
  <rect id="701b0609bda54175acfc0ce06873a245-oa-3" height="126.31579" width="178.94737" y="884.63147" x="332.73685" stroke="#2D2D2D" fill="#ff0000"/>
  <rect id="701b0609bda54175acfc0ce06873a245-oa-4" height="73.68421" width="176.31579" y="258.31568" x="745.89475" stroke="#2D2D2D" fill="#ff0000"/>
  <rect id="701b0609bda54175acfc0ce06873a245-oa-5" height="78.94737" width="218.42105" y="39.89463" x="1616.94738" stroke="#2D2D2D" fill="#ff0000"/>
  <rect id="701b0609bda54175acfc0ce06873a245-oa-6" height="76.31579" width="347.36842" y="176.73673" x="1545.89475" stroke="#2D2D2D" fill="#ff0000"/>
  <rect id="701b0609bda54175acfc0ce06873a245-oa-7" height="60.52632" width="242.10526" y="342.52621" x="1609.05264" stroke="#2D2D2D" fill="#ff0000"/>
  <rect id="701b0609bda54175acfc0ce06873a245-oa-8" height="78.94737" width="155.26316" y="603.05253" x="745.89475" stroke="#2D2D2D" fill="#ff0000"/>
  <rect id="701b0609bda54175acfc0ce06873a245-oa-9" height="71.05263" width="189.47368" y="500.42095" x="1616.94738" stroke="#2D2D2D" fill="#ff0000"/>
  <rect id="701b0609bda54175acfc0ce06873a245-oa-10" height="65.78947" width="184.21053" y="700.42095" x="1632.73685" stroke="#2D2D2D" fill="#ff0000"/>
  <rect id="701b0609bda54175acfc0ce06873a245-oa-11" height="147.36842" width="184.21053" y="976.73674" x="727.47369" stroke="#2D2D2D" fill="#ff0000"/>
  <rect id="701b0609bda54175acfc0ce06873a245-oa-12" height="68.42105" width="157.89474" y="916.21042" x="1638.00001" stroke="#2D2D2D" fill="#ff0000"/>
  <rect id="701b0609bda54175acfc0ce06873a245-oa-13" height="63.15789" width="192.10526" y="1103.05253" x="1622.21054" stroke="#2D2D2D" fill="#ff0000"/>
  <rect id="701b0609bda54175acfc0ce06873a245-oa-14" height="57.89474" width="271.05263" y="1260.94726" x="230.10527" stroke="#2D2D2D" fill="#ff0000"/>
  <rect id="701b0609bda54175acfc0ce06873a245-oa-15" height="50" width="471.05263" y="1266.21042" x="1274.84212" stroke="#2D2D2D" fill="#ff0000"/>
  <rect id="701b0609bda54175acfc0ce06873a245-oa-16" height="47.36842" width="68.42105" y="1460.94726" x="140.63159" stroke="#2D2D2D" fill="#ff0000"/>
 </g>
</svg>