<svg xmlns="http://www.w3.org/2000/svg" width="2350" height="1254">
 <!-- Created with Image Occlusion Enhanced -->
 <g>
  <title>Labels</title>
 </g>
 <g>
  <title>Masks</title>
  <rect id="719811b86a0449d99e275592da84854d-oa-1" height="58.33333" width="241.66667" y="150.16671" x="785.41666" stroke="#2D2D2D" fill="#ff0000"/>
  <rect id="719811b86a0449d99e275592da84854d-oa-2" height="47.91667" width="89.58334" y="239.75004" x="112.49997" stroke="#2D2D2D" fill="#ff0000"/>
  <rect id="719811b86a0449d99e275592da84854d-oa-3" height="47.91667" width="264.58334" y="381.41671" x="91.66664" stroke="#2D2D2D" fill="#ff0000"/>
  <rect id="719811b86a0449d99e275592da84854d-oa-4" height="52.08333" width="393.75001" y="458.50005" x="93.74997" stroke="#2D2D2D" fill="#ff0000"/>
  <rect id="719811b86a0449d99e275592da84854d-oa-5" height="62.5" width="429.16668" y="562.66672" x="97.91664" stroke="#2D2D2D" fill="#ff0000"/>
  <rect id="719811b86a0449d99e275592da84854d-oa-6" height="52.08333" width="252.08334" y="150.16671" x="1575.00001" stroke="#2D2D2D" fill="#ff0000"/>
  <rect id="719811b86a0449d99e275592da84854d-oa-7" height="54.16667" width="370.83334" y="254.33338" x="1162.5" stroke="#2D2D2D" fill="#ff0000"/>
  <rect id="719811b86a0449d99e275592da84854d-oa-8" height="41.66667" width="304.16668" y="381.41671" x="1168.75" stroke="#2D2D2D" fill="#ff0000"/>
  <rect id="719811b86a0449d99e275592da84854d-oa-9" height="43.75" width="135.41667" y="475.16672" x="1162.5" stroke="#2D2D2D" fill="#ff0000"/>
  <rect id="719811b86a0449d99e275592da84854d-oa-10" height="64.58334" width="425.00001" y="550.16672" x="1164.58333" stroke="#2D2D2D" fill="#ff0000"/>
  <rect id="719811b86a0449d99e275592da84854d-oa-11" height="35.41667" width="137.5" y="796.00006" x="229.16664" stroke="#2D2D2D" fill="#ff0000"/>
  <rect id="719811b86a0449d99e275592da84854d-oa-12" height="56.25" width="325.00001" y="871.00006" x="147.91664" stroke="#2D2D2D" fill="#ff0000"/>
  <rect id="719811b86a0449d99e275592da84854d-oa-13" height="56.25" width="281.25001" y="1010.5834" x="149.99997" stroke="#2D2D2D" fill="#ff0000"/>
  <rect id="719811b86a0449d99e275592da84854d-oa-14" height="47.91667" width="310.41668" y="783.50006" x="649.99999" stroke="#2D2D2D" fill="#ff0000"/>
  <rect id="719811b86a0449d99e275592da84854d-oa-15" height="41.66667" width="506.25001" y="883.50006" x="562.49998" stroke="#2D2D2D" fill="#ff0000"/>
  <rect id="719811b86a0449d99e275592da84854d-oa-16" height="43.75" width="289.58334" y="1014.75006" x="666.66665" stroke="#2D2D2D" fill="#ff0000"/>
  <rect id="719811b86a0449d99e275592da84854d-oa-17" height="39.58333" width="314.58334" y="1141.8334" x="654.16665" stroke="#2D2D2D" fill="#ff0000"/>
  <rect id="719811b86a0449d99e275592da84854d-oa-18" height="50" width="420.83335" y="771.00006" x="1172.91667" stroke="#2D2D2D" fill="#ff0000"/>
  <rect id="719811b86a0449d99e275592da84854d-oa-19" height="52.08333" width="452.08335" y="879.33339" x="1158.33333" stroke="#2D2D2D" fill="#ff0000"/>
  <rect id="719811b86a0449d99e275592da84854d-oa-20" height="100" width="293.75001" y="985.5834" x="1245.83334" stroke="#2D2D2D" fill="#ff0000"/>
  <rect id="719811b86a0449d99e275592da84854d-oa-21" height="47.91667" width="116.66667" y="789.75006" x="1864.58335" stroke="#2D2D2D" fill="#ff0000"/>
  <rect id="719811b86a0449d99e275592da84854d-oa-22" height="39.58333" width="429.16668" y="889.75006" x="1697.91668" stroke="#2D2D2D" fill="#ff0000"/>
 </g>
</svg>