<svg xmlns="http://www.w3.org/2000/svg" width="1882" height="1396">
 <!-- Created with Image Occlusion Enhanced -->
 <g>
  <title>Labels</title>
 </g>
 <g>
  <title>Masks</title>
  <rect id="7b2f7cddff5f41a286d99bdd31649a24-oa-1" height="41.86046" width="95.34884" y="210.97665" x="52.8837" stroke="#2D2D2D" fill="#ff0000"/>
  <rect id="7b2f7cddff5f41a286d99bdd31649a24-oa-2" height="37.2093" width="216.27907" y="197.02316" x="1483.11624" stroke="#2D2D2D" fill="#ff0000"/>
  <rect id="7b2f7cddff5f41a286d99bdd31649a24-oa-3" height="37.2093" width="93.02325" y="250.51153" x="1422.65112" stroke="#2D2D2D" fill="#ff0000"/>
  <rect id="7b2f7cddff5f41a286d99bdd31649a24-oa-4" height="32.55814" width="204.65116" y="303.9999" x="1285.44182" stroke="#2D2D2D" fill="#ff0000"/>
  <rect id="7b2f7cddff5f41a286d99bdd31649a24-oa-5" height="27.90698" width="81.39535" y="352.83711" x="1280.79066" stroke="#2D2D2D" fill="#ff0000"/>
  <rect id="7b2f7cddff5f41a286d99bdd31649a24-oa-6" height="41.86046" width="23.25581" y="213.30223" x="208.69765" stroke="#2D2D2D" fill="#ff0000"/>
  <rect id="7b2f7cddff5f41a286d99bdd31649a24-oa-7" height="34.88372" width="102.32558" y="541.2092" x="29.62788" stroke="#2D2D2D" fill="#ff0000"/>
  <rect id="7b2f7cddff5f41a286d99bdd31649a24-oa-8" height="34.88372" width="32.55814" y="601.67432" x="192.41858" stroke="#2D2D2D" fill="#ff0000"/>
  <rect id="7b2f7cddff5f41a286d99bdd31649a24-oa-9" height="44.18605" width="183.72093" y="541.2092" x="406.37207" stroke="#2D2D2D" fill="#ff0000"/>
  <rect id="7b2f7cddff5f41a286d99bdd31649a24-oa-10" height="32.55814" width="132.55814" y="745.86036" x="299.39532" stroke="#2D2D2D" fill="#ff0000"/>
  <rect id="7b2f7cddff5f41a286d99bdd31649a24-oa-11" height="37.2093" width="30.23256" y="801.67432" x="185.44184" stroke="#2D2D2D" fill="#ff0000"/>
  <rect id="7b2f7cddff5f41a286d99bdd31649a24-oa-12" height="34.88372" width="148.83721" y="494.69757" x="1273.81392" stroke="#2D2D2D" fill="#ff0000"/>
  <rect id="7b2f7cddff5f41a286d99bdd31649a24-oa-13" height="37.2093" width="146.51163" y="545.86036" x="1283.11624" stroke="#2D2D2D" fill="#ff0000"/>
  <rect id="7b2f7cddff5f41a286d99bdd31649a24-oa-14" height="30.23256" width="188.37209" y="599.34874" x="1287.7674" stroke="#2D2D2D" fill="#ff0000"/>
  <rect id="7b2f7cddff5f41a286d99bdd31649a24-oa-15" height="32.55814" width="132.55814" y="720.27897" x="1348.23252" stroke="#2D2D2D" fill="#ff0000"/>
  <rect id="7b2f7cddff5f41a286d99bdd31649a24-oa-16" height="46.51163" width="139.53488" y="764.46501" x="1259.86043" stroke="#2D2D2D" fill="#ff0000"/>
  <rect id="7b2f7cddff5f41a286d99bdd31649a24-oa-17" height="37.2093" width="130.23256" y="820.27897" x="1283.11624" stroke="#2D2D2D" fill="#ff0000"/>
  <rect id="7b2f7cddff5f41a286d99bdd31649a24-oa-18" height="39.53488" width="193.02325" y="1008.65106" x="111.02323" stroke="#2D2D2D" fill="#ff0000"/>
  <rect id="7b2f7cddff5f41a286d99bdd31649a24-oa-19" height="25.5814" width="186.04651" y="962.13943" x="378.46509" stroke="#2D2D2D" fill="#ff0000"/>
  <rect id="7b2f7cddff5f41a286d99bdd31649a24-oa-20" height="27.90698" width="127.90698" y="1208.65105" x="452.88369" stroke="#2D2D2D" fill="#ff0000"/>
  <rect id="7b2f7cddff5f41a286d99bdd31649a24-oa-21" height="39.53488" width="116.27907" y="903.9999" x="1285.44182" stroke="#2D2D2D" fill="#ff0000"/>
  <rect id="7b2f7cddff5f41a286d99bdd31649a24-oa-22" height="20.93023" width="141.86046" y="957.48827" x="1273.81392" stroke="#2D2D2D" fill="#ff0000"/>
  <rect id="7b2f7cddff5f41a286d99bdd31649a24-oa-23" height="27.90698" width="176.74418" y="1006.32548" x="1283.11624" stroke="#2D2D2D" fill="#ff0000"/>
  <rect id="7b2f7cddff5f41a286d99bdd31649a24-oa-24" height="32.55814" width="67.44186" y="1055.16268" x="1292.41857" stroke="#2D2D2D" fill="#ff0000"/>
  <rect id="7b2f7cddff5f41a286d99bdd31649a24-oa-25" height="30.23256" width="125.58139" y="1134.23245" x="1299.39531" stroke="#2D2D2D" fill="#ff0000"/>
  <rect id="7b2f7cddff5f41a286d99bdd31649a24-oa-26" height="34.88372" width="381.39534" y="1187.72082" x="1280.79066" stroke="#2D2D2D" fill="#ff0000"/>
  <rect id="7b2f7cddff5f41a286d99bdd31649a24-oa-27" height="20.93023" width="179.06977" y="1238.88361" x="1278.46508" stroke="#2D2D2D" fill="#ff0000"/>
  <rect id="7b2f7cddff5f41a286d99bdd31649a24-oa-28" height="16.27907" width="58.13953" y="1287.72082" x="1292.41857" stroke="#2D2D2D" fill="#ff0000"/>
  <rect id="7b2f7cddff5f41a286d99bdd31649a24-oa-29" height="30.23256" width="318.60465" y="1331.90687" x="1434.27903" stroke="#2D2D2D" fill="#ff0000"/>
 </g>
</svg>