<svg xmlns="http://www.w3.org/2000/svg" width="1486" height="1782">
 <!-- Created with Image Occlusion Enhanced -->
 <g>
  <title>Labels</title>
 </g>
 <g>
  <title>Masks</title>
  <rect id="7bc8cfe89c0c415c8e7164865aea7f5a-oa-1" height="20.68966" width="13.7931" y="52.48261" x="93.31034" stroke="#2D2D2D" fill="#ff0000"/>
  <rect id="7bc8cfe89c0c415c8e7164865aea7f5a-oa-2" height="20.68966" width="89.65517" y="83.51709" x="96.75861" stroke="#2D2D2D" fill="#ff0000"/>
  <rect id="7bc8cfe89c0c415c8e7164865aea7f5a-oa-3" height="20.68966" width="165.51724" y="117.99985" x="765.72413" stroke="#2D2D2D" fill="#ff0000"/>
  <rect id="7bc8cfe89c0c415c8e7164865aea7f5a-oa-4" height="24.13793" width="131.03448" y="145.58606" x="96.75861" stroke="#2D2D2D" fill="#ff0000"/>
  <rect id="7bc8cfe89c0c415c8e7164865aea7f5a-oa-5" height="17.24138" width="86.2069" y="180.06882" x="93.31034" stroke="#2D2D2D" fill="#ff0000"/>
  <rect id="7bc8cfe89c0c415c8e7164865aea7f5a-oa-6" height="20.68966" width="127.58621" y="214.55158" x="600.20688" stroke="#2D2D2D" fill="#ff0000"/>
  <rect id="7bc8cfe89c0c415c8e7164865aea7f5a-oa-7" height="13.7931" width="158.62069" y="249.03433" x="596.75861" stroke="#2D2D2D" fill="#ff0000"/>
  <rect id="7bc8cfe89c0c415c8e7164865aea7f5a-oa-8" height="27.58621" width="51.72414" y="276.62054" x="507.10344" stroke="#2D2D2D" fill="#ff0000"/>
  <rect id="7bc8cfe89c0c415c8e7164865aea7f5a-oa-9" height="20.68966" width="82.75862" y="307.65502" x="382.96551" stroke="#2D2D2D" fill="#ff0000"/>
  <rect id="7bc8cfe89c0c415c8e7164865aea7f5a-oa-10" height="27.58621" width="255.17241" y="338.68951" x="1062.27585" stroke="#2D2D2D" fill="#ff0000"/>
  <rect id="7bc8cfe89c0c415c8e7164865aea7f5a-oa-11" height="27.58621" width="17.24138" y="369.72399" x="158.82758" stroke="#2D2D2D" fill="#ff0000"/>
  <rect id="7bc8cfe89c0c415c8e7164865aea7f5a-oa-12" height="31.03448" width="400" y="400.75847" x="510.55171" stroke="#2D2D2D" fill="#ff0000"/>
  <rect id="7bc8cfe89c0c415c8e7164865aea7f5a-oa-13" height="24.13793" width="100" y="435.24123" x="445.03447" stroke="#2D2D2D" fill="#ff0000"/>
  <rect id="7bc8cfe89c0c415c8e7164865aea7f5a-oa-14" height="17.24138" width="37.93103" y="469.72399" x="448.48275" stroke="#2D2D2D" fill="#ff0000"/>
  <rect id="7bc8cfe89c0c415c8e7164865aea7f5a-oa-15" height="17.24138" width="93.10345" y="504.20675" x="420.89654" stroke="#2D2D2D" fill="#ff0000"/>
  <rect id="7bc8cfe89c0c415c8e7164865aea7f5a-oa-16" height="20.68966" width="41.37931" y="531.79295" x="441.5862" stroke="#2D2D2D" fill="#ff0000"/>
  <rect id="7bc8cfe89c0c415c8e7164865aea7f5a-oa-17" height="24.13793" width="393.10345" y="469.72399" x="534.68964" stroke="#2D2D2D" fill="#ff0000"/>
  <rect id="7bc8cfe89c0c415c8e7164865aea7f5a-oa-18" height="17.24138" width="368.96552" y="504.20675" x="548.48275" stroke="#2D2D2D" fill="#ff0000"/>
  <rect id="7bc8cfe89c0c415c8e7164865aea7f5a-oa-19" height="17.24138" width="293.10345" y="531.79295" x="531.24137" stroke="#2D2D2D" fill="#ff0000"/>
  <rect id="7bc8cfe89c0c415c8e7164865aea7f5a-oa-20" height="20.68966" width="65.51724" y="566.27571" x="393.31033" stroke="#2D2D2D" fill="#ff0000"/>
  <rect id="7bc8cfe89c0c415c8e7164865aea7f5a-oa-21" height="17.24138" width="65.51724" y="597.31019" x="379.51723" stroke="#2D2D2D" fill="#ff0000"/>
  <rect id="7bc8cfe89c0c415c8e7164865aea7f5a-oa-22" height="20.68966" width="110.34483" y="628.34468" x="607.10344" stroke="#2D2D2D" fill="#ff0000"/>
  <rect id="7bc8cfe89c0c415c8e7164865aea7f5a-oa-23" height="20.68966" width="68.96552" y="659.37916" x="231.24137" stroke="#2D2D2D" fill="#ff0000"/>
  <rect id="7bc8cfe89c0c415c8e7164865aea7f5a-oa-24" height="20.68966" width="120.68965" y="693.86192" x="300.20689" stroke="#2D2D2D" fill="#ff0000"/>
  <rect id="7bc8cfe89c0c415c8e7164865aea7f5a-oa-25" height="24.13793" width="82.75862" y="693.86192" x="493.31033" stroke="#2D2D2D" fill="#ff0000"/>
  <rect id="7bc8cfe89c0c415c8e7164865aea7f5a-oa-26" height="27.58621" width="89.65517" y="690.41364" x="682.9655" stroke="#2D2D2D" fill="#ff0000"/>
  <rect id="7bc8cfe89c0c415c8e7164865aea7f5a-oa-27" height="20.68966" width="82.75862" y="693.86192" x="831.24137" stroke="#2D2D2D" fill="#ff0000"/>
  <rect id="7bc8cfe89c0c415c8e7164865aea7f5a-oa-28" height="24.13793" width="65.51724" y="724.8964" x="420.89654" stroke="#2D2D2D" fill="#ff0000"/>
  <rect id="7bc8cfe89c0c415c8e7164865aea7f5a-oa-29" height="20.68966" width="68.96552" y="759.37916" x="389.86206" stroke="#2D2D2D" fill="#ff0000"/>
  <rect id="7bc8cfe89c0c415c8e7164865aea7f5a-oa-30" height="20.68966" width="27.58621" y="821.44812" x="717.44826" stroke="#2D2D2D" fill="#ff0000"/>
  <rect id="7bc8cfe89c0c415c8e7164865aea7f5a-oa-31" height="24.13793" width="131.03448" y="852.48261" x="645.03447" stroke="#2D2D2D" fill="#ff0000"/>
  <rect id="7bc8cfe89c0c415c8e7164865aea7f5a-oa-32" height="27.58621" width="20.68966" y="914.55157" x="924.34481" stroke="#2D2D2D" fill="#ff0000"/>
  <rect id="7bc8cfe89c0c415c8e7164865aea7f5a-oa-33" height="17.24138" width="117.24138" y="952.48261" x="500.20689" stroke="#2D2D2D" fill="#ff0000"/>
  <rect id="7bc8cfe89c0c415c8e7164865aea7f5a-oa-34" height="13.7931" width="93.10345" y="1017.99985" x="348.48275" stroke="#2D2D2D" fill="#ff0000"/>
  <rect id="7bc8cfe89c0c415c8e7164865aea7f5a-oa-35" height="17.24138" width="96.55172" y="1014.55157" x="841.58619" stroke="#2D2D2D" fill="#ff0000"/>
  <rect id="7bc8cfe89c0c415c8e7164865aea7f5a-oa-36" height="20.68966" width="65.51724" y="1045.58605" x="796.75861" stroke="#2D2D2D" fill="#ff0000"/>
  <rect id="7bc8cfe89c0c415c8e7164865aea7f5a-oa-37" height="24.13793" width="93.10345" y="1080.06881" x="882.9655" stroke="#2D2D2D" fill="#ff0000"/>
  <rect id="7bc8cfe89c0c415c8e7164865aea7f5a-oa-38" height="20.68966" width="144.82759" y="1111.1033" x="534.68964" stroke="#2D2D2D" fill="#ff0000"/>
  <rect id="7bc8cfe89c0c415c8e7164865aea7f5a-oa-39" height="17.24138" width="103.44828" y="1145.58605" x="613.99999" stroke="#2D2D2D" fill="#ff0000"/>
  <rect id="7bc8cfe89c0c415c8e7164865aea7f5a-oa-40" height="20.68966" width="31.03448" y="1176.62054" x="451.93102" stroke="#2D2D2D" fill="#ff0000"/>
  <rect id="7bc8cfe89c0c415c8e7164865aea7f5a-oa-41" height="24.13793" width="31.03448" y="1173.17226" x="793.31033" stroke="#2D2D2D" fill="#ff0000"/>
  <rect id="7bc8cfe89c0c415c8e7164865aea7f5a-oa-42" height="20.68966" width="337.93103" y="1238.6895" x="396.75861" stroke="#2D2D2D" fill="#ff0000"/>
  <rect id="7bc8cfe89c0c415c8e7164865aea7f5a-oa-43" height="27.58621" width="162.06896" y="1269.72398" x="586.41378" stroke="#2D2D2D" fill="#ff0000"/>
  <rect id="7bc8cfe89c0c415c8e7164865aea7f5a-oa-44" height="20.68966" width="262.06896" y="1335.24123" x="193.31034" stroke="#2D2D2D" fill="#ff0000"/>
  <rect id="7bc8cfe89c0c415c8e7164865aea7f5a-oa-45" height="27.58621" width="65.51724" y="1397.31019" x="141.5862" stroke="#2D2D2D" fill="#ff0000"/>
  <rect id="7bc8cfe89c0c415c8e7164865aea7f5a-oa-46" height="20.68966" width="62.06897" y="1435.24122" x="507.10344" stroke="#2D2D2D" fill="#ff0000"/>
  <rect id="7bc8cfe89c0c415c8e7164865aea7f5a-oa-47" height="24.13793" width="134.48276" y="1462.82743" x="465.72413" stroke="#2D2D2D" fill="#ff0000"/>
  <rect id="7bc8cfe89c0c415c8e7164865aea7f5a-oa-48" height="20.68966" width="13.7931" y="1493.86191" x="455.3793" stroke="#2D2D2D" fill="#ff0000"/>
  <rect id="7bc8cfe89c0c415c8e7164865aea7f5a-oa-49" height="20.68966" width="17.24138" y="1559.37916" x="1217.44826" stroke="#2D2D2D" fill="#ff0000"/>
  <rect id="7bc8cfe89c0c415c8e7164865aea7f5a-oa-50" height="20.68966" width="72.41379" y="1628.34467" x="648.48275" stroke="#2D2D2D" fill="#ff0000"/>
  <rect id="7bc8cfe89c0c415c8e7164865aea7f5a-oa-51" height="20.68966" width="144.82759" y="1659.37915" x="96.75861" stroke="#2D2D2D" fill="#ff0000"/>
 </g>
</svg>