<svg xmlns="http://www.w3.org/2000/svg" width="2316" height="1579.9999999999998">
 <!-- Created with Image Occlusion Enhanced -->
 <g>
  <title>Labels</title>
 </g>
 <g>
  <title>Masks</title>
  <rect id="9099396a626343bbbe55e065f92a0764-oa-1" height="51.51515" width="206.0606" y="386.66657" x="56.72718" stroke="#2D2D2D" fill="#ff0000"/>
  <rect id="9099396a626343bbbe55e065f92a0764-oa-2" height="60.60606" width="351.51514" y="374.54536" x="820.36352" stroke="#2D2D2D" fill="#ff0000"/>
  <rect id="9099396a626343bbbe55e065f92a0764-oa-3" height="69.69697" width="454.54544" y="492.72717" x="53.69688" stroke="#2D2D2D" fill="#ff0000"/>
  <rect id="9099396a626343bbbe55e065f92a0764-oa-4" height="106.0606" width="409.09089" y="471.51505" x="814.30291" stroke="#2D2D2D" fill="#ff0000"/>
  <rect id="9099396a626343bbbe55e065f92a0764-oa-5" height="63.63636" width="203.0303" y="632.12111" x="53.69688" stroke="#2D2D2D" fill="#ff0000"/>
  <rect id="9099396a626343bbbe55e065f92a0764-oa-6" height="115.15151" width="242.42423" y="607.87868" x="823.39382" stroke="#2D2D2D" fill="#ff0000"/>
  <rect id="9099396a626343bbbe55e065f92a0764-oa-7" height="51.51515" width="218.18181" y="768.48474" x="59.75748" stroke="#2D2D2D" fill="#ff0000"/>
  <rect id="9099396a626343bbbe55e065f92a0764-oa-8" height="78.78788" width="248.48484" y="762.42413" x="826.42412" stroke="#2D2D2D" fill="#ff0000"/>
  <rect id="9099396a626343bbbe55e065f92a0764-oa-9" height="60.60606" width="330.30302" y="880.60595" x="59.75748" stroke="#2D2D2D" fill="#ff0000"/>
  <rect id="9099396a626343bbbe55e065f92a0764-oa-10" height="60.60606" width="306.06059" y="886.66655" x="820.36352" stroke="#2D2D2D" fill="#ff0000"/>
  <rect id="9099396a626343bbbe55e065f92a0764-oa-11" height="60.60606" width="227.27272" y="989.69685" x="56.72718" stroke="#2D2D2D" fill="#ff0000"/>
  <rect id="9099396a626343bbbe55e065f92a0764-oa-12" height="75.75757" width="327.27271" y="992.72715" x="808.2423" stroke="#2D2D2D" fill="#ff0000"/>
  <rect id="9099396a626343bbbe55e065f92a0764-oa-13" height="42.42424" width="184.84848" y="974.54534" x="1605.21197" stroke="#2D2D2D" fill="#ff0000"/>
  <rect id="9099396a626343bbbe55e065f92a0764-oa-14" height="60.60606" width="324.24241" y="1153.33321" x="59.75748" stroke="#2D2D2D" fill="#ff0000"/>
  <rect id="9099396a626343bbbe55e065f92a0764-oa-15" height="69.69697" width="330.30302" y="1150.30291" x="817.33321" stroke="#2D2D2D" fill="#ff0000"/>
  <rect id="9099396a626343bbbe55e065f92a0764-oa-16" height="69.69697" width="690.90906" y="1335.15138" x="68.84839" stroke="#2D2D2D" fill="#ff0000"/>
  <rect id="9099396a626343bbbe55e065f92a0764-oa-17" height="63.63636" width="342.42423" y="1344.24229" x="814.30291" stroke="#2D2D2D" fill="#ff0000"/>
  <rect id="9099396a626343bbbe55e065f92a0764-oa-18" height="69.69697" width="724.2424" y="1471.51501" x="53.69688" stroke="#2D2D2D" fill="#ff0000"/>
  <rect id="9099396a626343bbbe55e065f92a0764-oa-19" height="57.57576" width="348.48484" y="1480.60592" x="814.30291" stroke="#2D2D2D" fill="#ff0000"/>
 </g>
</svg>