<svg xmlns="http://www.w3.org/2000/svg" width="1664" height="1713.9999999999998">
 <!-- Created with Image Occlusion Enhanced -->
 <g>
  <title>Labels</title>
 </g>
 <g>
  <title>Masks</title>
  <rect id="97ce1c3eebba43caaf7380525cf65082-oa-1" height="46.66667" width="60" y="402.66662" x="1222.6666" stroke="#2D2D2D" fill="#ff0000"/>
  <rect id="97ce1c3eebba43caaf7380525cf65082-oa-2" height="36.66667" width="130" y="405.99995" x="1332.66659" stroke="#2D2D2D" fill="#ff0000"/>
  <rect id="97ce1c3eebba43caaf7380525cf65082-oa-3" height="70" width="143.33333" y="592.66661" x="1105.99993" stroke="#2D2D2D" fill="#ff0000"/>
  <rect id="97ce1c3eebba43caaf7380525cf65082-oa-4" height="33.33333" width="100" y="595.99995" x="1359.33326" stroke="#2D2D2D" fill="#ff0000"/>
  <rect id="97ce1c3eebba43caaf7380525cf65082-oa-5" height="26.66667" width="120" y="725.99994" x="1109.33327" stroke="#2D2D2D" fill="#ff0000"/>
  <rect id="97ce1c3eebba43caaf7380525cf65082-oa-6" height="23.33333" width="359.99999" y="842.66661" x="1125.99993" stroke="#2D2D2D" fill="#ff0000"/>
  <rect id="97ce1c3eebba43caaf7380525cf65082-oa-7" height="16.66667" width="299.99999" y="875.99994" x="1129.33327" stroke="#2D2D2D" fill="#ff0000"/>
  <rect id="97ce1c3eebba43caaf7380525cf65082-oa-8" height="23.33333" width="83.33333" y="1122.6666" x="485.99995" stroke="#2D2D2D" fill="#ff0000"/>
  <rect id="97ce1c3eebba43caaf7380525cf65082-oa-9" height="20" width="176.66666" y="1155.99993" x="485.99995" stroke="#2D2D2D" fill="#ff0000"/>
  <rect id="97ce1c3eebba43caaf7380525cf65082-oa-10" height="20" width="86.66666" y="1189.33326" x="485.99995" stroke="#2D2D2D" fill="#ff0000"/>
  <rect id="97ce1c3eebba43caaf7380525cf65082-oa-11" height="20" width="83.33333" y="1219.33326" x="489.33328" stroke="#2D2D2D" fill="#ff0000"/>
  <rect id="97ce1c3eebba43caaf7380525cf65082-oa-12" height="20" width="56.66667" y="1122.6666" x="889.33327" stroke="#2D2D2D" fill="#ff0000"/>
  <rect id="97ce1c3eebba43caaf7380525cf65082-oa-13" height="16.66667" width="100" y="1162.6666" x="882.6666" stroke="#2D2D2D" fill="#ff0000"/>
  <rect id="97ce1c3eebba43caaf7380525cf65082-oa-14" height="16.66667" width="190" y="1195.99993" x="892.6666" stroke="#2D2D2D" fill="#ff0000"/>
  <rect id="97ce1c3eebba43caaf7380525cf65082-oa-15" height="26.66667" width="40" y="1395.99993" x="1022.6666" stroke="#2D2D2D" fill="#ff0000"/>
  <rect id="97ce1c3eebba43caaf7380525cf65082-oa-16" height="23.33333" width="96.66666" y="1452.66659" x="1002.6666" stroke="#2D2D2D" fill="#ff0000"/>
  <rect id="97ce1c3eebba43caaf7380525cf65082-oa-17" height="23.33333" width="146.66666" y="1512.66659" x="972.6666" stroke="#2D2D2D" fill="#ff0000"/>
  <rect id="97ce1c3eebba43caaf7380525cf65082-oa-18" height="20" width="100" y="1565.99992" x="999.33327" stroke="#2D2D2D" fill="#ff0000"/>
  <rect id="97ce1c3eebba43caaf7380525cf65082-oa-19" height="60" width="106.66666" y="1609.33325" x="992.6666" stroke="#2D2D2D" fill="#ff0000"/>
 </g>
</svg>