<svg xmlns="http://www.w3.org/2000/svg" width="1428" height="1766">
 <!-- Created with Image Occlusion Enhanced -->
 <g>
  <title>Labels</title>
 </g>
 <g>
  <title>Masks</title>
  <rect id="9be9fd56cf3f46db813d25d2e3509eff-oa-1" height="24.13793" width="13.7931" y="27.10336" x="744.41382" stroke="#2D2D2D" fill="#ff0000"/>
  <rect id="9be9fd56cf3f46db813d25d2e3509eff-oa-2" height="17.24138" width="179.31035" y="61.58612" x="89.2414" stroke="#2D2D2D" fill="#ff0000"/>
  <rect id="9be9fd56cf3f46db813d25d2e3509eff-oa-3" height="13.7931" width="103.44828" y="161.58612" x="85.79312" stroke="#2D2D2D" fill="#ff0000"/>
  
  <rect id="9be9fd56cf3f46db813d25d2e3509eff-oa-4" height="24.13793" width="17.24138" y="216.75854" x="151.31036" stroke="#2D2D2D" fill="#ff0000"/>
  <rect id="9be9fd56cf3f46db813d25d2e3509eff-oa-5" height="20.68966" width="13.7931" y="216.75854" x="285.79312" stroke="#2D2D2D" fill="#ff0000"/>
  <rect id="9be9fd56cf3f46db813d25d2e3509eff-oa-6" height="20.68966" width="120.68966" y="254.68957" x="1016.82761" stroke="#2D2D2D" fill="#ff0000"/>
  <rect id="9be9fd56cf3f46db813d25d2e3509eff-oa-7" height="20.68966" width="189.65517" y="316.75854" x="78.89657" stroke="#2D2D2D" fill="#ff0000"/>
  <rect id="9be9fd56cf3f46db813d25d2e3509eff-oa-8" height="20.68966" width="313.79311" y="344.34475" x="82.34485" stroke="#2D2D2D" fill="#ff0000"/>
  <rect id="9be9fd56cf3f46db813d25d2e3509eff-oa-9" height="20.68966" width="48.27586" y="416.75854" x="892.68968" stroke="#2D2D2D" fill="#ff0000"/>
  <rect id="9be9fd56cf3f46db813d25d2e3509eff-oa-10" height="20.68966" width="86.2069" y="447.79302" x="640.96554" stroke="#2D2D2D" fill="#ff0000"/>
  <rect id="9be9fd56cf3f46db813d25d2e3509eff-oa-11" height="24.13793" width="82.75862" y="444.34475" x="975.4483" stroke="#2D2D2D" fill="#ff0000"/>
  <rect id="9be9fd56cf3f46db813d25d2e3509eff-oa-12" height="17.24138" width="103.44828" y="509.86199" x="272.00002" stroke="#2D2D2D" fill="#ff0000"/>
  <rect id="9be9fd56cf3f46db813d25d2e3509eff-oa-13" height="20.68966" width="62.06897" y="571.93096" x="761.6552" stroke="#2D2D2D" fill="#ff0000"/>
  <rect id="9be9fd56cf3f46db813d25d2e3509eff-oa-14" height="17.24138" width="113.7931" y="606.41371" x="723.72416" stroke="#2D2D2D" fill="#ff0000"/>
  <rect id="9be9fd56cf3f46db813d25d2e3509eff-oa-15" height="17.24138" width="86.2069" y="671.93096" x="682.34485" stroke="#2D2D2D" fill="#ff0000"/>
  <rect id="9be9fd56cf3f46db813d25d2e3509eff-oa-16" height="17.24138" width="41.37931" y="702.96544" x="816.82761" stroke="#2D2D2D" fill="#ff0000"/>
  <rect id="9be9fd56cf3f46db813d25d2e3509eff-oa-17" height="24.13793" width="358.62069" y="730.55165" x="409.93106" stroke="#2D2D2D" fill="#ff0000"/>
  <rect id="9be9fd56cf3f46db813d25d2e3509eff-oa-18" height="17.24138" width="86.2069" y="765.03441" x="889.24141" stroke="#2D2D2D" fill="#ff0000"/>
  <rect id="9be9fd56cf3f46db813d25d2e3509eff-oa-19" height="17.24138" width="182.75862" y="865.03441" x="868.55175" stroke="#2D2D2D" fill="#ff0000"/>
  <rect id="9be9fd56cf3f46db813d25d2e3509eff-oa-20" height="17.24138" width="79.31035" y="896.06889" x="1134.069" stroke="#2D2D2D" fill="#ff0000"/>
  <rect id="9be9fd56cf3f46db813d25d2e3509eff-oa-21" height="27.58621" width="17.24138" y="954.68958" x="1123.72417" stroke="#2D2D2D" fill="#ff0000"/>
  <rect id="9be9fd56cf3f46db813d25d2e3509eff-oa-22" height="20.68966" width="155.17242" y="1054.68958" x="92.68967" stroke="#2D2D2D" fill="#ff0000"/>
  <rect id="9be9fd56cf3f46db813d25d2e3509eff-oa-23" height="20.68966" width="34.48276" y="1085.72406" x="734.06899" stroke="#2D2D2D" fill="#ff0000"/>
  <rect id="9be9fd56cf3f46db813d25d2e3509eff-oa-24" height="17.24138" width="34.48276" y="1123.6551" x="403.0345" stroke="#2D2D2D" fill="#ff0000"/>
  <rect id="9be9fd56cf3f46db813d25d2e3509eff-oa-25" height="20.68966" width="37.93103" y="1161.58613" x="396.13795" stroke="#2D2D2D" fill="#ff0000"/>
  <rect id="9be9fd56cf3f46db813d25d2e3509eff-oa-26" height="24.13793" width="31.03448" y="1202.96545" x="399.58623" stroke="#2D2D2D" fill="#ff0000"/>
  <rect id="9be9fd56cf3f46db813d25d2e3509eff-oa-27" height="13.7931" width="24.13793" y="1247.79303" x="399.58623" stroke="#2D2D2D" fill="#ff0000"/>
  <rect id="9be9fd56cf3f46db813d25d2e3509eff-oa-28" height="24.13793" width="13.7931" y="1282.27579" x="430.62071" stroke="#2D2D2D" fill="#ff0000"/>
  <rect id="9be9fd56cf3f46db813d25d2e3509eff-oa-29" height="20.68966" width="37.93103" y="1323.6551" x="344.41381" stroke="#2D2D2D" fill="#ff0000"/>
  <rect id="9be9fd56cf3f46db813d25d2e3509eff-oa-30" height="27.58621" width="17.24138" y="1358.13786" x="278.89657" stroke="#2D2D2D" fill="#ff0000"/>
  
  <rect id="9be9fd56cf3f46db813d25d2e3509eff-oa-31" height="24.13793" width="24.13793" y="1440.89648" x="803.03451" stroke="#2D2D2D" fill="#ff0000"/>
  <rect id="9be9fd56cf3f46db813d25d2e3509eff-oa-32" height="24.13793" width="34.48276" y="1482.27579" x="578.89658" stroke="#2D2D2D" fill="#ff0000"/>
  <rect id="9be9fd56cf3f46db813d25d2e3509eff-oa-33" height="27.58621" width="37.93103" y="1520.20683" x="678.89658" stroke="#2D2D2D" fill="#ff0000"/>
  <rect id="9be9fd56cf3f46db813d25d2e3509eff-oa-34" height="27.58621" width="48.27586" y="1558.13786" x="396.13795" stroke="#2D2D2D" fill="#ff0000"/>
  <rect id="9be9fd56cf3f46db813d25d2e3509eff-oa-35" height="24.13793" width="37.93103" y="1602.96545" x="551.31037" stroke="#2D2D2D" fill="#ff0000"/>
  <rect id="9be9fd56cf3f46db813d25d2e3509eff-oa-36" height="20.68966" width="31.03448" y="1644.34476" x="468.55175" stroke="#2D2D2D" fill="#ff0000"/>
  <rect id="9be9fd56cf3f46db813d25d2e3509eff-oa-37" height="20.68966" width="189.65517" y="1682.2758" x="861.6552" stroke="#2D2D2D" fill="#ff0000"/>
  <rect id="9be9fd56cf3f46db813d25d2e3509eff-oa-38" height="17.24138" width="100" y="1723.65511" x="430.62071" stroke="#2D2D2D" fill="#ff0000"/>
  <rect id="9be9fd56cf3f46db813d25d2e3509eff-oa-39" height="24.13793" width="27.58621" y="1723.65511" x="747.86209" stroke="#2D2D2D" fill="#ff0000"/>
 </g>
</svg>