<svg xmlns="http://www.w3.org/2000/svg" width="1626" height="1588.0000000000002">
 <!-- Created with Image Occlusion Enhanced -->
 <g>
  <title>Labels</title>
 </g>
 <g>
  <title>Masks</title>
  <rect id="9fd2a0a1c5f6443da42cca14326891c2-oa-1" height="44.73684" width="165.78947" y="159.36841" x="123.99998" stroke="#2D2D2D" fill="#ff0000"/>
  <rect id="9fd2a0a1c5f6443da42cca14326891c2-oa-2" height="65.78947" width="136.8421" y="761.99999" x="126.63156" stroke="#2D2D2D" fill="#ff0000"/>
  <rect id="9fd2a0a1c5f6443da42cca14326891c2-oa-3" height="65.78947" width="197.36842" y="59.36841" x="1184.5263" stroke="#2D2D2D" fill="#ff0000"/>
  <rect id="9fd2a0a1c5f6443da42cca14326891c2-oa-4" height="55.26316" width="121.05263" y="177.78947" x="666.10524" stroke="#2D2D2D" fill="#ff0000"/>
  <rect id="9fd2a0a1c5f6443da42cca14326891c2-oa-5" height="60.52632" width="613.15789" y="290.94736" x="676.63156" stroke="#2D2D2D" fill="#ff0000"/>
  <rect id="9fd2a0a1c5f6443da42cca14326891c2-oa-6" height="57.89474" width="107.89474" y="667.26315" x="576.63156" stroke="#2D2D2D" fill="#ff0000"/>
  <rect id="9fd2a0a1c5f6443da42cca14326891c2-oa-7" height="68.42105" width="76.31579" y="864.63157" x="595.05261" stroke="#2D2D2D" fill="#ff0000"/>
  <rect id="9fd2a0a1c5f6443da42cca14326891c2-oa-8" height="60.52632" width="178.94737" y="446.21052" x="860.84209" stroke="#2D2D2D" fill="#ff0000"/>
  <rect id="9fd2a0a1c5f6443da42cca14326891c2-oa-9" height="42.10526" width="321.05263" y="569.89473" x="847.68419" stroke="#2D2D2D" fill="#ff0000"/>
  <rect id="9fd2a0a1c5f6443da42cca14326891c2-oa-10" height="57.89474" width="207.89474" y="669.89473" x="842.42103" stroke="#2D2D2D" fill="#ff0000"/>
  <rect id="9fd2a0a1c5f6443da42cca14326891c2-oa-11" height="57.89474" width="297.36842" y="825.15788" x="845.05261" stroke="#2D2D2D" fill="#ff0000"/>
  <rect id="9fd2a0a1c5f6443da42cca14326891c2-oa-12" height="57.89474" width="315.78947" y="969.89473" x="837.15788" stroke="#2D2D2D" fill="#ff0000"/>
  <rect id="9fd2a0a1c5f6443da42cca14326891c2-oa-13" height="52.63158" width="386.8421" y="1140.94736" x="845.05261" stroke="#2D2D2D" fill="#ff0000"/>
  <rect id="9fd2a0a1c5f6443da42cca14326891c2-oa-14" height="60.52632" width="344.73684" y="1283.05262" x="855.57893" stroke="#2D2D2D" fill="#ff0000"/>
  <rect id="9fd2a0a1c5f6443da42cca14326891c2-oa-15" height="47.36842" width="273.68421" y="1440.94736" x="850.31577" stroke="#2D2D2D" fill="#ff0000"/>
 </g>
</svg>