<svg xmlns="http://www.w3.org/2000/svg" width="1480" height="1745.9999999999998">
 <!-- Created with Image Occlusion Enhanced -->
 <g>
  <title>Labels</title>
 </g>
 <g>
  <title>Masks</title>
  <rect id="bb1ca522ea884c1480e32e5e433c044a-oa-1" height="73.52941" width="191.17647" y="312.82348" x="114.11761" stroke="#2D2D2D" fill="#ff0000"/>
  <rect id="bb1ca522ea884c1480e32e5e433c044a-oa-2" height="64.70588" width="197.05882" y="424.58818" x="96.47055" stroke="#2D2D2D" fill="#ff0000"/>
  <rect id="bb1ca522ea884c1480e32e5e433c044a-oa-3" height="35.29412" width="197.05882" y="536.35288" x="84.70584" stroke="#2D2D2D" fill="#ff0000"/>
  <rect id="bb1ca522ea884c1480e32e5e433c044a-oa-4" height="41.17647" width="229.41176" y="724.58817" x="96.47055" stroke="#2D2D2D" fill="#ff0000"/>
  <rect id="bb1ca522ea884c1480e32e5e433c044a-oa-5" height="44.11765" width="179.41176" y="836.35288" x="211.17643" stroke="#2D2D2D" fill="#ff0000"/>
  <rect id="bb1ca522ea884c1480e32e5e433c044a-oa-6" height="38.23529" width="129.41176" y="903.99993" x="269.99996" stroke="#2D2D2D" fill="#ff0000"/>
  <rect id="bb1ca522ea884c1480e32e5e433c044a-oa-7" height="38.23529" width="261.7647" y="486.35289" x="1014.11759" stroke="#2D2D2D" fill="#ff0000"/>
  <rect id="bb1ca522ea884c1480e32e5e433c044a-oa-8" height="58.82353" width="173.52941" y="559.8823" x="1031.76464" stroke="#2D2D2D" fill="#ff0000"/>
  <rect id="bb1ca522ea884c1480e32e5e433c044a-oa-9" height="35.29412" width="235.29411" y="645.17641" x="905.29406" stroke="#2D2D2D" fill="#ff0000"/>
  <rect id="bb1ca522ea884c1480e32e5e433c044a-oa-10" height="29.41176" width="232.35294" y="742.23523" x="840.58818" stroke="#2D2D2D" fill="#ff0000"/>
  <rect id="bb1ca522ea884c1480e32e5e433c044a-oa-11" height="41.17647" width="229.41176" y="795.17641" x="814.11759" stroke="#2D2D2D" fill="#ff0000"/>
  <rect id="bb1ca522ea884c1480e32e5e433c044a-oa-12" height="29.41176" width="238.23529" y="786.35288" x="134.70584" stroke="#2D2D2D" fill="#ff0000"/>
  <rect id="bb1ca522ea884c1480e32e5e433c044a-oa-13" height="41.17647" width="241.17646" y="1289.29404" x="155.29408" stroke="#2D2D2D" fill="#ff0000"/>
  <rect id="bb1ca522ea884c1480e32e5e433c044a-oa-14" height="26.47059" width="258.82352" y="1356.9411" x="119.99996" stroke="#2D2D2D" fill="#ff0000"/>
  <rect id="bb1ca522ea884c1480e32e5e433c044a-oa-15" height="32.35294" width="214.70588" y="1418.7058" x="164.11761" stroke="#2D2D2D" fill="#ff0000"/>
  <rect id="bb1ca522ea884c1480e32e5e433c044a-oa-16" height="41.17647" width="194.11764" y="1609.88227" x="158.23525" stroke="#2D2D2D" fill="#ff0000"/>
  <rect id="bb1ca522ea884c1480e32e5e433c044a-oa-17" height="38.23529" width="182.35294" y="1265.76463" x="925.88229" stroke="#2D2D2D" fill="#ff0000"/>
  <rect id="bb1ca522ea884c1480e32e5e433c044a-oa-18" height="26.47059" width="238.23529" y="1559.88227" x="1011.17641" stroke="#2D2D2D" fill="#ff0000"/>
  <rect id="bb1ca522ea884c1480e32e5e433c044a-oa-19" height="38.23529" width="314.70587" y="1671.64697" x="855.29406" stroke="#2D2D2D" fill="#ff0000"/>
 </g>
</svg>