<svg xmlns="http://www.w3.org/2000/svg" width="1472" height="1795.9999999999998">
 <!-- Created with Image Occlusion Enhanced -->
 <g>
  <title>Labels</title>
 </g>
 <g>
  <title>Masks</title>
  <rect id="c23648ba37044f94bca843674b111d57-oa-1" height="17.24138" width="120.68965" y="45.37918" x="993.51721" stroke="#2D2D2D" fill="#ff0000"/>
  <rect id="c23648ba37044f94bca843674b111d57-oa-2" height="13.7931" width="68.96552" y="79.86194" x="814.20687" stroke="#2D2D2D" fill="#ff0000"/>
  <rect id="c23648ba37044f94bca843674b111d57-oa-3" height="20.68965" width="68.96552" y="110.89642" x="876.27584" stroke="#2D2D2D" fill="#ff0000"/>
  <rect id="c23648ba37044f94bca843674b111d57-oa-4" height="13.7931" width="134.48276" y="138.48263" x="810.75859" stroke="#2D2D2D" fill="#ff0000"/>
  <rect id="c23648ba37044f94bca843674b111d57-oa-5" height="17.24138" width="120.68965" y="162.62056" x="648.68963" stroke="#2D2D2D" fill="#ff0000"/>
  <rect id="c23648ba37044f94bca843674b111d57-oa-6" height="20.68965" width="110.34483" y="193.65504" x="507.31032" stroke="#2D2D2D" fill="#ff0000"/>
  <rect id="c23648ba37044f94bca843674b111d57-oa-7" height="17.24138" width="420.68965" y="224.68952" x="886.62066" stroke="#2D2D2D" fill="#ff0000"/>
  <rect id="c23648ba37044f94bca843674b111d57-oa-8" height="20.68965" width="141.37931" y="283.31021" x="138.34481" stroke="#2D2D2D" fill="#ff0000"/>
  <rect id="c23648ba37044f94bca843674b111d57-oa-9" height="17.24138" width="241.37931" y="314.3447" x="721.10342" stroke="#2D2D2D" fill="#ff0000"/>
  <rect id="c23648ba37044f94bca843674b111d57-oa-10" height="17.24138" width="189.65517" y="345.37918" x="814.20687" stroke="#2D2D2D" fill="#ff0000"/>
  <rect id="c23648ba37044f94bca843674b111d57-oa-11" height="13.7931" width="58.62069" y="376.41366" x="896.96549" stroke="#2D2D2D" fill="#ff0000"/>
  <rect id="c23648ba37044f94bca843674b111d57-oa-12" height="17.24138" width="62.06896" y="403.99987" x="586.62067" stroke="#2D2D2D" fill="#ff0000"/>
  <rect id="c23648ba37044f94bca843674b111d57-oa-13" height="20.68965" width="203.44827" y="431.58607" x="1045.24135" stroke="#2D2D2D" fill="#ff0000"/>
  <rect id="c23648ba37044f94bca843674b111d57-oa-14" height="24.13793" width="131.03448" y="459.17228" x="845.24135" stroke="#2D2D2D" fill="#ff0000"/>
  <rect id="c23648ba37044f94bca843674b111d57-oa-15" height="13.7931" width="148.27586" y="493.65504" x="972.82756" stroke="#2D2D2D" fill="#ff0000"/>
  <rect id="c23648ba37044f94bca843674b111d57-oa-16" height="20.68965" width="51.72414" y="521.24124" x="803.86204" stroke="#2D2D2D" fill="#ff0000"/>
  <rect id="c23648ba37044f94bca843674b111d57-oa-17" height="20.68965" width="75.86207" y="552.27573" x="641.79308" stroke="#2D2D2D" fill="#ff0000"/>
  <rect id="c23648ba37044f94bca843674b111d57-oa-18" height="17.24138" width="224.13793" y="583.31021" x="659.03446" stroke="#2D2D2D" fill="#ff0000"/>
  <rect id="c23648ba37044f94bca843674b111d57-oa-19" height="13.7931" width="131.03448" y="614.34469" x="741.79308" stroke="#2D2D2D" fill="#ff0000"/>
  <rect id="c23648ba37044f94bca843674b111d57-oa-20" height="17.24138" width="113.7931" y="641.9309" x="796.96549" stroke="#2D2D2D" fill="#ff0000"/>
  <rect id="c23648ba37044f94bca843674b111d57-oa-21" height="24.13793" width="20.68965" y="666.06883" x="1214.20687" stroke="#2D2D2D" fill="#ff0000"/>
  <rect id="c23648ba37044f94bca843674b111d57-oa-22" height="27.58621" width="55.17241" y="731.58607" x="538.3448" stroke="#2D2D2D" fill="#ff0000"/>
  <rect id="c23648ba37044f94bca843674b111d57-oa-23" height="17.24138" width="113.7931" y="735.03435" x="690.06894" stroke="#2D2D2D" fill="#ff0000"/>
  <rect id="c23648ba37044f94bca843674b111d57-oa-24" height="13.7931" width="237.93103" y="776.41366" x="776.27584" stroke="#2D2D2D" fill="#ff0000"/>
  <rect id="c23648ba37044f94bca843674b111d57-oa-25" height="20.68965" width="124.13793" y="810.89641" x="807.31032" stroke="#2D2D2D" fill="#ff0000"/>
  <rect id="c23648ba37044f94bca843674b111d57-oa-26" height="13.7931" width="210.34483" y="855.724" x="821.10342" stroke="#2D2D2D" fill="#ff0000"/>
  <rect id="c23648ba37044f94bca843674b111d57-oa-27" height="20.68965" width="20.68965" y="890.20676" x="921.10342" stroke="#2D2D2D" fill="#ff0000"/>
  <rect id="c23648ba37044f94bca843674b111d57-oa-28" height="24.13793" width="89.65517" y="886.75848" x="962.48273" stroke="#2D2D2D" fill="#ff0000"/>
  <rect id="c23648ba37044f94bca843674b111d57-oa-29" height="27.58621" width="103.44827" y="886.75848" x="1076.27583" stroke="#2D2D2D" fill="#ff0000"/>
  <rect id="c23648ba37044f94bca843674b111d57-oa-30" height="17.24138" width="110.34483" y="955.724" x="741.79308" stroke="#2D2D2D" fill="#ff0000"/>
  <rect id="c23648ba37044f94bca843674b111d57-oa-31" height="20.68965" width="75.86207" y="993.65503" x="1010.75859" stroke="#2D2D2D" fill="#ff0000"/>
  <rect id="c23648ba37044f94bca843674b111d57-oa-32" height="20.68965" width="96.55172" y="1059.17227" x="852.1379" stroke="#2D2D2D" fill="#ff0000"/>
  <rect id="c23648ba37044f94bca843674b111d57-oa-33" height="13.7931" width="206.89655" y="1100.55158" x="724.5517" stroke="#2D2D2D" fill="#ff0000"/>
  <rect id="c23648ba37044f94bca843674b111d57-oa-34" height="17.24138" width="100" y="1138.48262" x="724.5517" stroke="#2D2D2D" fill="#ff0000"/>
  <rect id="c23648ba37044f94bca843674b111d57-oa-35" height="17.24138" width="65.51724" y="1176.41365" x="796.96549" stroke="#2D2D2D" fill="#ff0000"/>
  <rect id="c23648ba37044f94bca843674b111d57-oa-36" height="20.68965" width="227.5862" y="1214.34469" x="845.24135" stroke="#2D2D2D" fill="#ff0000"/>
  <rect id="c23648ba37044f94bca843674b111d57-oa-37" height="17.24138" width="62.06896" y="1248.82744" x="769.37928" stroke="#2D2D2D" fill="#ff0000"/>
  <rect id="c23648ba37044f94bca843674b111d57-oa-38" height="27.58621" width="120.68965" y="1283.3102" x="924.5517" stroke="#2D2D2D" fill="#ff0000"/>
  <rect id="c23648ba37044f94bca843674b111d57-oa-39" height="17.24138" width="79.31034" y="1328.13779" x="810.75859" stroke="#2D2D2D" fill="#ff0000"/>
  <rect id="c23648ba37044f94bca843674b111d57-oa-40" height="24.13793" width="106.89655" y="1362.62055" x="959.03445" stroke="#2D2D2D" fill="#ff0000"/>
  <rect id="c23648ba37044f94bca843674b111d57-oa-41" height="17.24138" width="62.06896" y="1431.58606" x="959.03445" stroke="#2D2D2D" fill="#ff0000"/>
  <rect id="c23648ba37044f94bca843674b111d57-oa-42" height="24.13793" width="58.62069" y="1466.06882" x="734.89653" stroke="#2D2D2D" fill="#ff0000"/>
  <rect id="c23648ba37044f94bca843674b111d57-oa-43" height="20.68965" width="110.34483" y="1507.44813" x="855.58618" stroke="#2D2D2D" fill="#ff0000"/>
  <rect id="c23648ba37044f94bca843674b111d57-oa-44" height="17.24138" width="162.06896" y="1545.37916" x="627.99998" stroke="#2D2D2D" fill="#ff0000"/>
  <rect id="c23648ba37044f94bca843674b111d57-oa-45" height="24.13793" width="96.55172" y="1579.86192" x="641.79308" stroke="#2D2D2D" fill="#ff0000"/>
  <rect id="c23648ba37044f94bca843674b111d57-oa-46" height="24.13793" width="86.2069" y="1617.79296" x="779.72411" stroke="#2D2D2D" fill="#ff0000"/>
  <rect id="c23648ba37044f94bca843674b111d57-oa-47" height="24.13793" width="124.13793" y="1659.17227" x="876.27584" stroke="#2D2D2D" fill="#ff0000"/>
  <rect id="c23648ba37044f94bca843674b111d57-oa-48" height="20.68965" width="365.51724" y="1697.1033" x="703.86204" stroke="#2D2D2D" fill="#ff0000"/>
  <rect id="c23648ba37044f94bca843674b111d57-oa-49" height="27.58621" width="137.93103" y="1735.03433" x="1159.03445" stroke="#2D2D2D" fill="#ff0000"/>
 </g>
</svg>