<svg xmlns="http://www.w3.org/2000/svg" width="1382" height="1760">
 <!-- Created with Image Occlusion Enhanced -->
 <g>
  <title>Labels</title>
 </g>
 <g>
  <title>Masks</title>
  <rect id="cf6c7891071b4e0c8c730e40f2b61b8f-oa-1" height="31.03448" width="210.34483" y="102.06899" x="321.44828" stroke="#2D2D2D" fill="#ff0000"/>
  <rect id="cf6c7891071b4e0c8c730e40f2b61b8f-oa-2" height="27.58621" width="217.24138" y="195.17244" x="314.55173" stroke="#2D2D2D" fill="#ff0000"/>
  <rect id="cf6c7891071b4e0c8c730e40f2b61b8f-oa-3" height="34.48276" width="217.24138" y="288.27589" x="321.44828" stroke="#2D2D2D" fill="#ff0000"/>
  <rect id="cf6c7891071b4e0c8c730e40f2b61b8f-oa-4" height="31.03448" width="79.31035" y="302.06899" x="749.03449" stroke="#2D2D2D" fill="#ff0000"/>
  <rect id="cf6c7891071b4e0c8c730e40f2b61b8f-oa-5" height="37.93103" width="220.68966" y="371.03451" x="314.55173" stroke="#2D2D2D" fill="#ff0000"/>
  <rect id="cf6c7891071b4e0c8c730e40f2b61b8f-oa-6" height="31.03448" width="72.41379" y="391.72416" x="745.58621" stroke="#2D2D2D" fill="#ff0000"/>
  <rect id="cf6c7891071b4e0c8c730e40f2b61b8f-oa-7" height="31.03448" width="137.93104" y="450.34485" x="318" stroke="#2D2D2D" fill="#ff0000"/>
  <rect id="cf6c7891071b4e0c8c730e40f2b61b8f-oa-8" height="34.48276" width="120.68966" y="526.20692" x="324.89655" stroke="#2D2D2D" fill="#ff0000"/>
  <rect id="cf6c7891071b4e0c8c730e40f2b61b8f-oa-9" height="24.13793" width="79.31035" y="543.4483" x="793.86208" stroke="#2D2D2D" fill="#ff0000"/>
  <rect id="cf6c7891071b4e0c8c730e40f2b61b8f-oa-10" height="24.13793" width="82.75862" y="626.20693" x="318" stroke="#2D2D2D" fill="#ff0000"/>
  <rect id="cf6c7891071b4e0c8c730e40f2b61b8f-oa-11" height="27.58621" width="75.86207" y="695.17244" x="324.89655" stroke="#2D2D2D" fill="#ff0000"/>
  <rect id="cf6c7891071b4e0c8c730e40f2b61b8f-oa-12" height="31.03448" width="89.65517" y="760.68969" x="314.55173" stroke="#2D2D2D" fill="#ff0000"/>
  <rect id="cf6c7891071b4e0c8c730e40f2b61b8f-oa-13" height="31.03448" width="75.86207" y="819.31038" x="331.79311" stroke="#2D2D2D" fill="#ff0000"/>
  <rect id="cf6c7891071b4e0c8c730e40f2b61b8f-oa-14" height="31.03448" width="79.31035" y="912.41383" x="318" stroke="#2D2D2D" fill="#ff0000"/>
  <rect id="cf6c7891071b4e0c8c730e40f2b61b8f-oa-15" height="27.58621" width="124.13793" y="977.93107" x="314.55173" stroke="#2D2D2D" fill="#ff0000"/>
  <rect id="cf6c7891071b4e0c8c730e40f2b61b8f-oa-16" height="24.13793" width="124.13793" y="1064.13796" x="314.55173" stroke="#2D2D2D" fill="#ff0000"/>
  <rect id="cf6c7891071b4e0c8c730e40f2b61b8f-oa-17" height="41.37931" width="144.82759" y="1160.68969" x="311.10345" stroke="#2D2D2D" fill="#ff0000"/>
  <rect id="cf6c7891071b4e0c8c730e40f2b61b8f-oa-18" height="34.48276" width="168.96552" y="1246.89659" x="314.55173" stroke="#2D2D2D" fill="#ff0000"/>
  <rect id="cf6c7891071b4e0c8c730e40f2b61b8f-oa-19" height="31.03448" width="186.2069" y="1308.96555" x="321.44828" stroke="#2D2D2D" fill="#ff0000"/>
  <rect id="cf6c7891071b4e0c8c730e40f2b61b8f-oa-20" height="34.48276" width="234.48276" y="1371.03452" x="321.44828" stroke="#2D2D2D" fill="#ff0000"/>
  <rect id="cf6c7891071b4e0c8c730e40f2b61b8f-oa-21" height="31.03448" width="203.44828" y="1433.10349" x="311.10345" stroke="#2D2D2D" fill="#ff0000"/>
  <rect id="cf6c7891071b4e0c8c730e40f2b61b8f-oa-22" height="31.03448" width="200" y="1491.72418" x="321.44828" stroke="#2D2D2D" fill="#ff0000"/>
  <rect id="cf6c7891071b4e0c8c730e40f2b61b8f-oa-23" height="31.03448" width="220.68966" y="1553.79314" x="321.44828" stroke="#2D2D2D" fill="#ff0000"/>
  <rect id="cf6c7891071b4e0c8c730e40f2b61b8f-oa-24" height="41.37931" width="224.13793" y="1612.41383" x="314.55173" stroke="#2D2D2D" fill="#ff0000"/>
  <rect id="cf6c7891071b4e0c8c730e40f2b61b8f-oa-25" height="62.06897" width="262.06897" y="1691.72418" x="314.55173" stroke="#2D2D2D" fill="#ff0000"/>
 </g>
</svg>