<svg xmlns="http://www.w3.org/2000/svg" width="1973.9999999999998" height="1402">
 <!-- Created with Image Occlusion Enhanced -->
 <g>
  <title>Labels</title>
 </g>
 <g>
  <title>Masks</title>
  <rect id="f3ccf8617d02482b884f832ed8a9fb8d-oa-1" height="39.53488" width="332.55815" y="95.67445" x="430.65112" stroke="#2D2D2D" fill="#ff0000"/>
  <rect id="f3ccf8617d02482b884f832ed8a9fb8d-oa-2" height="41.86047" width="220.93024" y="153.81399" x="423.67438" stroke="#2D2D2D" fill="#ff0000"/>
  <rect id="f3ccf8617d02482b884f832ed8a9fb8d-oa-3" height="39.53488" width="304.65117" y="211.95353" x="423.67438" stroke="#2D2D2D" fill="#ff0000"/>
  <rect id="f3ccf8617d02482b884f832ed8a9fb8d-oa-4" height="39.53488" width="241.86047" y="218.93027" x="1388.79068" stroke="#2D2D2D" fill="#ff0000"/>
  <rect id="f3ccf8617d02482b884f832ed8a9fb8d-oa-5" height="41.86047" width="365.11629" y="279.39539" x="1388.79068" stroke="#2D2D2D" fill="#ff0000"/>
  <rect id="f3ccf8617d02482b884f832ed8a9fb8d-oa-6" height="46.51163" width="186.04652" y="339.86051" x="1398.09301" stroke="#2D2D2D" fill="#ff0000"/>
  <rect transform="rotate(-11.513815879821777 1080.651123046875,404.9767150878905) " id="f3ccf8617d02482b884f832ed8a9fb8d-oa-7" height="32.55814" width="300.00001" y="388.69772" x="930.65114" stroke="#2D2D2D" fill="#ff0000"/>
  <rect id="f3ccf8617d02482b884f832ed8a9fb8d-oa-8" height="48.83721" width="132.55814" y="411.95353" x="158.55809" stroke="#2D2D2D" fill="#ff0000"/>
  <rect id="f3ccf8617d02482b884f832ed8a9fb8d-oa-9" height="37.2093" width="181.39535" y="691.02331" x="91.11623" stroke="#2D2D2D" fill="#ff0000"/>
  <rect id="f3ccf8617d02482b884f832ed8a9fb8d-oa-10" height="32.55814" width="151.16279" y="742.1861" x="88.79065" stroke="#2D2D2D" fill="#ff0000"/>
  <rect id="f3ccf8617d02482b884f832ed8a9fb8d-oa-11" height="44.18605" width="390.69768" y="902.65122" x="163.20926" stroke="#2D2D2D" fill="#ff0000"/>
  <rect id="f3ccf8617d02482b884f832ed8a9fb8d-oa-12" height="32.55814" width="223.25582" y="958.46517" x="156.23251" stroke="#2D2D2D" fill="#ff0000"/>
  <rect id="f3ccf8617d02482b884f832ed8a9fb8d-oa-13" height="32.55814" width="155.81396" y="1135.20936" x="298.09298" stroke="#2D2D2D" fill="#ff0000"/>
  <rect id="f3ccf8617d02482b884f832ed8a9fb8d-oa-14" height="37.2093" width="197.67442" y="1184.04657" x="293.44182" stroke="#2D2D2D" fill="#ff0000"/>
  <rect id="f3ccf8617d02482b884f832ed8a9fb8d-oa-15" height="51.16279" width="109.30233" y="1237.53495" x="293.44182" stroke="#2D2D2D" fill="#ff0000"/>
  <rect id="f3ccf8617d02482b884f832ed8a9fb8d-oa-16" height="53.48837" width="172.09303" y="1165.44192" x="1525.99999" stroke="#2D2D2D" fill="#ff0000"/>
 </g>
</svg>