<svg xmlns="http://www.w3.org/2000/svg" width="1420" height="1789.9999999999998">
 <!-- Created with Image Occlusion Enhanced -->
 <g>
  <title>Labels</title>
 </g>
 <g>
  <title>Masks</title>
  <rect id="f64ac56c65f24ae5a175ce616e159471-oa-1" height="27.58621" width="51.72414" y="16.89664" x="559.3104" stroke="#2D2D2D" fill="#ff0000"/>
  <rect id="f64ac56c65f24ae5a175ce616e159471-oa-2" height="24.13793" width="117.24138" y="16.89664" x="669.65523" stroke="#2D2D2D" fill="#ff0000"/>
  <rect id="f64ac56c65f24ae5a175ce616e159471-oa-3" height="27.58621" width="58.62069" y="54.82767" x="580.00006" stroke="#2D2D2D" fill="#ff0000"/>
  <rect id="f64ac56c65f24ae5a175ce616e159471-oa-4" height="20.68966" width="62.06897" y="85.86216" x="693.79317" stroke="#2D2D2D" fill="#ff0000"/>
  <rect id="f64ac56c65f24ae5a175ce616e159471-oa-5" height="17.24138" width="51.72414" y="116.89664" x="697.24144" stroke="#2D2D2D" fill="#ff0000"/>
  <rect id="f64ac56c65f24ae5a175ce616e159471-oa-6" height="17.24138" width="55.17242" y="147.93113" x="738.62075" stroke="#2D2D2D" fill="#ff0000"/>
  <rect id="f64ac56c65f24ae5a175ce616e159471-oa-7" height="27.58621" width="31.03448" y="175.51733" x="583.44833" stroke="#2D2D2D" fill="#ff0000"/>
  <rect id="f64ac56c65f24ae5a175ce616e159471-oa-8" height="17.24138" width="55.17242" y="210.00009" x="548.96557" stroke="#2D2D2D" fill="#ff0000"/>
  <rect id="f64ac56c65f24ae5a175ce616e159471-oa-9" height="17.24138" width="124.13794" y="237.5863" x="783.44834" stroke="#2D2D2D" fill="#ff0000"/>
  <rect id="f64ac56c65f24ae5a175ce616e159471-oa-10" height="17.24138" width="62.06897" y="272.06906" x="742.06903" stroke="#2D2D2D" fill="#ff0000"/>
  <rect id="f64ac56c65f24ae5a175ce616e159471-oa-11" height="13.7931" width="117.24138" y="272.06906" x="855.86214" stroke="#2D2D2D" fill="#ff0000"/>
  <rect id="f64ac56c65f24ae5a175ce616e159471-oa-12" height="17.24138" width="255.17243" y="296.20699" x="666.20696" stroke="#2D2D2D" fill="#ff0000"/>
  <rect id="f64ac56c65f24ae5a175ce616e159471-oa-13" height="17.24138" width="210.34484" y="330.68975" x="669.65523" stroke="#2D2D2D" fill="#ff0000"/>
  <rect id="f64ac56c65f24ae5a175ce616e159471-oa-14" height="13.7931" width="206.89656" y="358.27596" x="690.34489" stroke="#2D2D2D" fill="#ff0000"/>
  <rect id="f64ac56c65f24ae5a175ce616e159471-oa-15" height="17.24138" width="231.03449" y="389.31045" x="728.27593" stroke="#2D2D2D" fill="#ff0000"/>
  <rect id="f64ac56c65f24ae5a175ce616e159471-oa-16" height="17.24138" width="355.17243" y="416.89666" x="493.79316" stroke="#2D2D2D" fill="#ff0000"/>
  <rect id="f64ac56c65f24ae5a175ce616e159471-oa-17" height="20.68966" width="41.37931" y="444.48286" x="607.58627" stroke="#2D2D2D" fill="#ff0000"/>
  <rect id="f64ac56c65f24ae5a175ce616e159471-oa-18" height="20.68966" width="44.82759" y="475.51735" x="735.17248" stroke="#2D2D2D" fill="#ff0000"/>
  <rect id="f64ac56c65f24ae5a175ce616e159471-oa-19" height="20.68966" width="103.44828" y="506.55183" x="624.82765" stroke="#2D2D2D" fill="#ff0000"/>
  <rect id="f64ac56c65f24ae5a175ce616e159471-oa-20" height="20.68966" width="244.8276" y="534.13804" x="962.7587" stroke="#2D2D2D" fill="#ff0000"/>
  <rect id="f64ac56c65f24ae5a175ce616e159471-oa-21" height="17.24138" width="55.17242" y="565.17252" x="852.41386" stroke="#2D2D2D" fill="#ff0000"/>
  <rect id="f64ac56c65f24ae5a175ce616e159471-oa-22" height="20.68966" width="165.51725" y="592.75873" x="697.24144" stroke="#2D2D2D" fill="#ff0000"/>
  <rect id="f64ac56c65f24ae5a175ce616e159471-oa-23" height="17.24138" width="48.27586" y="623.79322" x="793.79317" stroke="#2D2D2D" fill="#ff0000"/>
  <rect id="f64ac56c65f24ae5a175ce616e159471-oa-24" height="20.68966" width="48.27586" y="651.37943" x="866.20697" stroke="#2D2D2D" fill="#ff0000"/>
  <rect id="f64ac56c65f24ae5a175ce616e159471-oa-25" height="20.68966" width="51.72414" y="682.41391" x="1055.86215" stroke="#2D2D2D" fill="#ff0000"/>
  <rect id="f64ac56c65f24ae5a175ce616e159471-oa-26" height="13.7931" width="224.13794" y="720.34495" x="524.82764" stroke="#2D2D2D" fill="#ff0000"/>
  <rect id="f64ac56c65f24ae5a175ce616e159471-oa-27" height="13.7931" width="120.68966" y="744.48288" x="759.31041" stroke="#2D2D2D" fill="#ff0000"/>
  <rect id="f64ac56c65f24ae5a175ce616e159471-oa-28" height="20.68966" width="96.55173" y="772.06909" x="993.79318" stroke="#2D2D2D" fill="#ff0000"/>
  <rect id="f64ac56c65f24ae5a175ce616e159471-oa-29" height="24.13793" width="93.10345" y="803.10357" x="962.7587" stroke="#2D2D2D" fill="#ff0000"/>
  <rect id="f64ac56c65f24ae5a175ce616e159471-oa-30" height="20.68966" width="93.10345" y="830.68978" x="800.68972" stroke="#2D2D2D" fill="#ff0000"/>
  <rect id="f64ac56c65f24ae5a175ce616e159471-oa-31" height="17.24138" width="103.44828" y="861.72426" x="631.7242" stroke="#2D2D2D" fill="#ff0000"/>
  <rect id="f64ac56c65f24ae5a175ce616e159471-oa-32" height="17.24138" width="272.41381" y="892.75875" x="435.17246" stroke="#2D2D2D" fill="#ff0000"/>
  <rect id="f64ac56c65f24ae5a175ce616e159471-oa-33" height="17.24138" width="265.51725" y="923.79323" x="755.86213" stroke="#2D2D2D" fill="#ff0000"/>
  <rect id="f64ac56c65f24ae5a175ce616e159471-oa-34" height="17.24138" width="113.79311" y="951.37944" x="600.68971" stroke="#2D2D2D" fill="#ff0000"/>
  <rect id="f64ac56c65f24ae5a175ce616e159471-oa-35" height="20.68966" width="348.27588" y="982.41392" x="597.24144" stroke="#2D2D2D" fill="#ff0000"/>
  <rect id="f64ac56c65f24ae5a175ce616e159471-oa-36" height="20.68966" width="48.27586" y="1010.00013" x="676.55179" stroke="#2D2D2D" fill="#ff0000"/>
  <rect id="f64ac56c65f24ae5a175ce616e159471-oa-37" height="13.7931" width="265.51725" y="1044.48289" x="704.13799" stroke="#2D2D2D" fill="#ff0000"/>
  <rect id="f64ac56c65f24ae5a175ce616e159471-oa-38" height="17.24138" width="175.86208" y="1068.62082" x="811.03455" stroke="#2D2D2D" fill="#ff0000"/>
  <rect id="f64ac56c65f24ae5a175ce616e159471-oa-39" height="20.68966" width="127.58621" y="1099.65531" x="783.44834" stroke="#2D2D2D" fill="#ff0000"/>
  <rect id="f64ac56c65f24ae5a175ce616e159471-oa-40" height="17.24138" width="151.72415" y="1134.13807" x="890.3449" stroke="#2D2D2D" fill="#ff0000"/>
  <rect id="f64ac56c65f24ae5a175ce616e159471-oa-41" height="20.68966" width="131.03449" y="1158.276" x="773.10351" stroke="#2D2D2D" fill="#ff0000"/>
  <rect id="f64ac56c65f24ae5a175ce616e159471-oa-42" height="27.58621" width="448.27588" y="1185.86221" x="621.37937" stroke="#2D2D2D" fill="#ff0000"/>
  <rect id="f64ac56c65f24ae5a175ce616e159471-oa-43" height="17.24138" width="210.34484" y="1223.79325" x="752.41386" stroke="#2D2D2D" fill="#ff0000"/>
  <rect id="f64ac56c65f24ae5a175ce616e159471-oa-44" height="20.68966" width="200.00001" y="1251.37945" x="597.24144" stroke="#2D2D2D" fill="#ff0000"/>
  <rect id="f64ac56c65f24ae5a175ce616e159471-oa-45" height="13.7931" width="113.79311" y="1282.41394" x="538.62074" stroke="#2D2D2D" fill="#ff0000"/>
  <rect id="f64ac56c65f24ae5a175ce616e159471-oa-46" height="20.68966" width="24.13793" y="1310.00015" x="855.86214" stroke="#2D2D2D" fill="#ff0000"/>
  <rect id="f64ac56c65f24ae5a175ce616e159471-oa-47" height="20.68966" width="106.89656" y="1337.58635" x="593.79316" stroke="#2D2D2D" fill="#ff0000"/>
  <rect id="f64ac56c65f24ae5a175ce616e159471-oa-48" height="17.24138" width="68.96552" y="1368.62084" x="738.62075" stroke="#2D2D2D" fill="#ff0000"/>
  <rect id="f64ac56c65f24ae5a175ce616e159471-oa-49" height="20.68966" width="306.89657" y="1396.20705" x="593.79316" stroke="#2D2D2D" fill="#ff0000"/>
  <rect id="f64ac56c65f24ae5a175ce616e159471-oa-50" height="20.68966" width="175.86208" y="1427.24153" x="769.65524" stroke="#2D2D2D" fill="#ff0000"/>
  <rect id="f64ac56c65f24ae5a175ce616e159471-oa-51" height="17.24138" width="179.31035" y="1458.27601" x="704.13799" stroke="#2D2D2D" fill="#ff0000"/>
  <rect id="f64ac56c65f24ae5a175ce616e159471-oa-52" height="20.68966" width="68.96552" y="1485.86222" x="762.75869" stroke="#2D2D2D" fill="#ff0000"/>
  <rect id="f64ac56c65f24ae5a175ce616e159471-oa-53" height="17.24138" width="51.72414" y="1516.89671" x="642.06903" stroke="#2D2D2D" fill="#ff0000"/>
  <rect id="f64ac56c65f24ae5a175ce616e159471-oa-54" height="20.68966" width="124.13794" y="1520.34498" x="755.86213" stroke="#2D2D2D" fill="#ff0000"/>
  <rect id="f64ac56c65f24ae5a175ce616e159471-oa-55" height="20.68966" width="58.62069" y="1544.48292" x="655.86213" stroke="#2D2D2D" fill="#ff0000"/>
  <rect id="f64ac56c65f24ae5a175ce616e159471-oa-56" height="20.68966" width="103.44828" y="1575.5174" x="562.75868" stroke="#2D2D2D" fill="#ff0000"/>
  <rect id="f64ac56c65f24ae5a175ce616e159471-oa-57" height="24.13793" width="41.37931" y="1603.10361" x="1062.7587" stroke="#2D2D2D" fill="#ff0000"/>
  <rect id="f64ac56c65f24ae5a175ce616e159471-oa-58" height="20.68966" width="48.27586" y="1603.10361" x="1155.86215" stroke="#2D2D2D" fill="#ff0000"/>
  <rect id="f64ac56c65f24ae5a175ce616e159471-oa-59" height="24.13793" width="210.34484" y="1637.58637" x="762.75869" stroke="#2D2D2D" fill="#ff0000"/>
  <rect id="f64ac56c65f24ae5a175ce616e159471-oa-60" height="20.68966" width="158.6207" y="1668.62085" x="955.86214" stroke="#2D2D2D" fill="#ff0000"/>
  <rect id="f64ac56c65f24ae5a175ce616e159471-oa-61" height="13.7931" width="41.37931" y="1699.65534" x="769.65524" stroke="#2D2D2D" fill="#ff0000"/>
  <rect id="f64ac56c65f24ae5a175ce616e159471-oa-62" height="24.13793" width="124.13794" y="1723.79327" x="686.89661" stroke="#2D2D2D" fill="#ff0000"/>
 </g>
</svg>