<svg xmlns="http://www.w3.org/2000/svg" width="1766.0000000000002" height="1484">
 <!-- Created with Image Occlusion Enhanced -->
 <g>
  <title>Labels</title>
 </g>
 <g>
  <title>Masks</title>
  <rect id="f89b8e2727c5474fb09a5fa5d1dc0075-oa-1" height="37.5" width="215.00001" y="121.00007" x="341.49989" stroke="#2D2D2D" fill="#ffff00"/>
  <rect id="f89b8e2727c5474fb09a5fa5d1dc0075-oa-2" height="35" width="150.00001" y="171.00007" x="971.49991" stroke="#2D2D2D" fill="#ffff00"/>
  <rect id="f89b8e2727c5474fb09a5fa5d1dc0075-oa-3" height="32.5" width="172.50001" y="293.50007" x="46.49987" stroke="#2D2D2D" fill="#ffff00"/>
  <rect id="f89b8e2727c5474fb09a5fa5d1dc0075-oa-4" height="40" width="187.50001" y="461.00008" x="336.49989" stroke="#2D2D2D" fill="#ffff00"/>
  <rect id="f89b8e2727c5474fb09a5fa5d1dc0075-oa-5" height="27.5" width="230.00001" y="566.00008" x="418.99989" stroke="#2D2D2D" fill="#ffff00"/>
  <rect id="f89b8e2727c5474fb09a5fa5d1dc0075-oa-6" height="32.5" width="220.00001" y="681.00009" x="331.49989" stroke="#2D2D2D" fill="#ffff00"/>
  <rect id="f89b8e2727c5474fb09a5fa5d1dc0075-oa-7" height="27.5" width="150.00001" y="781.00009" x="508.99989" stroke="#2D2D2D" fill="#ffff00"/>
  <rect id="f89b8e2727c5474fb09a5fa5d1dc0075-oa-8" height="37.5" width="235.00001" y="848.5001" x="576.4999" stroke="#2D2D2D" fill="#ffff00"/>
  <rect id="f89b8e2727c5474fb09a5fa5d1dc0075-oa-9" height="30" width="70" y="903.5001" x="113.99988" stroke="#2D2D2D" fill="#ffff00"/>
  <rect id="f89b8e2727c5474fb09a5fa5d1dc0075-oa-10" height="40" width="167.50001" y="971.0001" x="333.99989" stroke="#2D2D2D" fill="#ffff00"/>
  <rect id="f89b8e2727c5474fb09a5fa5d1dc0075-oa-11" height="32.5" width="267.50001" y="1188.50011" x="116.49988" stroke="#2D2D2D" fill="#ffff00"/>
  <rect id="f89b8e2727c5474fb09a5fa5d1dc0075-oa-12" height="30" width="92.5" y="1191.00011" x="408.99989" stroke="#2D2D2D" fill="#ffff00"/>
  <rect id="f89b8e2727c5474fb09a5fa5d1dc0075-oa-13" height="37.5" width="180.00001" y="1288.50011" x="118.99988" stroke="#2D2D2D" fill="#ffff00"/>
  <rect id="f89b8e2727c5474fb09a5fa5d1dc0075-oa-14" height="32.5" width="320.00001" y="1343.50012" x="103.99988" stroke="#2D2D2D" fill="#ffff00"/>
  <rect id="f89b8e2727c5474fb09a5fa5d1dc0075-oa-15" height="42.5" width="205.00001" y="1426.00012" x="101.49988" stroke="#2D2D2D" fill="#ffff00"/>
 </g>
</svg>