<svg xmlns="http://www.w3.org/2000/svg" width="1476" height="1736">
 <!-- Created with Image Occlusion Enhanced -->
 <g>
  <title>Labels</title>
 </g>
 <g>
  <title>Masks</title>
  <rect id="ffd80b176e6f4e159c39317607f70de3-oa-1" height="20" width="133.33334" y="80.66671" x="480.66672" stroke="#2D2D2D" fill="#ff0000"/>
  <rect id="ffd80b176e6f4e159c39317607f70de3-oa-2" height="23.33333" width="190.00001" y="117.33337" x="937.3334" stroke="#2D2D2D" fill="#ff0000"/>
  <rect id="ffd80b176e6f4e159c39317607f70de3-oa-3" height="23.33333" width="170" y="190.66671" x="517.33339" stroke="#2D2D2D" fill="#ff0000"/>
  <rect id="ffd80b176e6f4e159c39317607f70de3-oa-4" height="30" width="36.66667" y="267.33338" x="464.00005" stroke="#2D2D2D" fill="#ff0000"/>
  <rect id="ffd80b176e6f4e159c39317607f70de3-oa-5" height="20" width="110" y="344.00005" x="627.33339" stroke="#2D2D2D" fill="#ff0000"/>
  <rect id="ffd80b176e6f4e159c39317607f70de3-oa-6" height="23.33333" width="123.33334" y="340.66671" x="887.3334" stroke="#2D2D2D" fill="#ff0000"/>
  <rect id="ffd80b176e6f4e159c39317607f70de3-oa-7" height="26.66667" width="196.66667" y="380.66671" x="614.00006" stroke="#2D2D2D" fill="#ff0000"/>
  <rect id="ffd80b176e6f4e159c39317607f70de3-oa-8" height="26.66667" width="63.33334" y="420.66672" x="220.66671" stroke="#2D2D2D" fill="#ff0000"/>
  <rect id="ffd80b176e6f4e159c39317607f70de3-oa-9" height="30" width="123.33334" y="460.66672" x="587.33339" stroke="#2D2D2D" fill="#ff0000"/>
  <rect id="ffd80b176e6f4e159c39317607f70de3-oa-10" height="23.33333" width="60" y="460.66672" x="870.66673" stroke="#2D2D2D" fill="#ff0000"/>
  <rect id="ffd80b176e6f4e159c39317607f70de3-oa-11" height="26.66667" width="80" y="500.66672" x="380.66672" stroke="#2D2D2D" fill="#ff0000"/>
  <rect id="ffd80b176e6f4e159c39317607f70de3-oa-12" height="23.33333" width="143.33334" y="540.66672" x="110.66671" stroke="#2D2D2D" fill="#ff0000"/>
  <rect id="ffd80b176e6f4e159c39317607f70de3-oa-13" height="30" width="103.33334" y="580.66672" x="654.00006" stroke="#2D2D2D" fill="#ff0000"/>
  <rect id="ffd80b176e6f4e159c39317607f70de3-oa-14" height="30" width="180" y="620.66672" x="110.66671" stroke="#2D2D2D" fill="#ff0000"/>
  <rect id="ffd80b176e6f4e159c39317607f70de3-oa-15" height="26.66667" width="120" y="690.66672" x="644.00006" stroke="#2D2D2D" fill="#ff0000"/>
  <rect id="ffd80b176e6f4e159c39317607f70de3-oa-16" height="23.33333" width="116.66667" y="734.00006" x="790.66673" stroke="#2D2D2D" fill="#ff0000"/>
  <rect id="ffd80b176e6f4e159c39317607f70de3-oa-17" height="26.66667" width="100" y="814.00006" x="784.00006" stroke="#2D2D2D" fill="#ff0000"/>
  <rect id="ffd80b176e6f4e159c39317607f70de3-oa-18" height="23.33333" width="136.66667" y="854.00006" x="660.66673" stroke="#2D2D2D" fill="#ff0000"/>
  <rect id="ffd80b176e6f4e159c39317607f70de3-oa-19" height="26.66667" width="90" y="894.00006" x="1117.3334" stroke="#2D2D2D" fill="#ff0000"/>
  <rect id="ffd80b176e6f4e159c39317607f70de3-oa-20" height="23.33333" width="110" y="934.00006" x="107.33338" stroke="#2D2D2D" fill="#ff0000"/>
  <rect id="ffd80b176e6f4e159c39317607f70de3-oa-21" height="26.66667" width="106.66667" y="934.00006" x="684.00006" stroke="#2D2D2D" fill="#ff0000"/>
  <rect id="ffd80b176e6f4e159c39317607f70de3-oa-22" height="26.66667" width="283.33334" y="1004.00006" x="684.00006" stroke="#2D2D2D" fill="#ff0000"/>
  <rect id="ffd80b176e6f4e159c39317607f70de3-oa-23" height="26.66667" width="100" y="1044.00007" x="990.66673" stroke="#2D2D2D" fill="#ff0000"/>
  <rect id="ffd80b176e6f4e159c39317607f70de3-oa-24" height="20" width="70" y="1080.66673" x="107.33338" stroke="#2D2D2D" fill="#ff0000"/>
  <rect id="ffd80b176e6f4e159c39317607f70de3-oa-25" height="20" width="73.33334" y="1117.3334" x="1054.00007" stroke="#2D2D2D" fill="#ff0000"/>
  <rect id="ffd80b176e6f4e159c39317607f70de3-oa-26" height="26.66667" width="120" y="1160.66674" x="537.33339" stroke="#2D2D2D" fill="#ff0000"/>
  <rect id="ffd80b176e6f4e159c39317607f70de3-oa-27" height="26.66667" width="20" y="1197.3334" x="844.00006" stroke="#2D2D2D" fill="#ff0000"/>
  <rect id="ffd80b176e6f4e159c39317607f70de3-oa-28" height="23.33333" width="120" y="1230.66674" x="100.66671" stroke="#2D2D2D" fill="#ff0000"/>
  <rect id="ffd80b176e6f4e159c39317607f70de3-oa-29" height="30" width="70" y="1224.00007" x="280.66672" stroke="#2D2D2D" fill="#ff0000"/>
  <rect id="ffd80b176e6f4e159c39317607f70de3-oa-30" height="26.66667" width="183.33334" y="1270.66674" x="420.66672" stroke="#2D2D2D" fill="#ff0000"/>
  <rect id="ffd80b176e6f4e159c39317607f70de3-oa-31" height="26.66667" width="13.33333" y="1307.33341" x="877.3334" stroke="#2D2D2D" fill="#ff0000"/>
  <rect id="ffd80b176e6f4e159c39317607f70de3-oa-32" height="23.33333" width="90" y="1340.66674" x="164.00005" stroke="#2D2D2D" fill="#ff0000"/>
  <rect id="ffd80b176e6f4e159c39317607f70de3-oa-33" height="23.33333" width="86.66667" y="1384.00008" x="100.66671" stroke="#2D2D2D" fill="#ff0000"/>
  <rect id="ffd80b176e6f4e159c39317607f70de3-oa-34" height="13.33333" width="230.00001" y="1427.33341" x="104.00004" stroke="#2D2D2D" fill="#ff0000"/>
  <rect id="ffd80b176e6f4e159c39317607f70de3-oa-35" height="26.66667" width="103.33334" y="1460.66674" x="154.00004" stroke="#2D2D2D" fill="#ff0000"/>
  <rect id="ffd80b176e6f4e159c39317607f70de3-oa-36" height="20" width="100" y="1494.00008" x="157.33338" stroke="#2D2D2D" fill="#ff0000"/>
  <rect id="ffd80b176e6f4e159c39317607f70de3-oa-37" height="10" width="26.66667" y="1534.00008" x="220.66671" stroke="#2D2D2D" fill="#ff0000"/>
  <rect id="ffd80b176e6f4e159c39317607f70de3-oa-38" height="20" width="16.66667" y="1524.00008" x="627.33339" stroke="#2D2D2D" fill="#ff0000"/>
  <rect id="ffd80b176e6f4e159c39317607f70de3-oa-39" height="20" width="180" y="1560.66675" x="840.66673" stroke="#2D2D2D" fill="#ff0000"/>
  <rect id="ffd80b176e6f4e159c39317607f70de3-oa-40" height="23.33333" width="23.33333" y="1590.66675" x="307.33338" stroke="#2D2D2D" fill="#ff0000"/>
  <rect id="ffd80b176e6f4e159c39317607f70de3-oa-41" height="23.33333" width="56.66667" y="1624.00008" x="907.3334" stroke="#2D2D2D" fill="#ff0000"/>
  <rect id="ffd80b176e6f4e159c39317607f70de3-oa-42" height="23.33333" width="196.66667" y="1657.33342" x="734.00006" stroke="#2D2D2D" fill="#ff0000"/>
  <rect id="ffd80b176e6f4e159c39317607f70de3-oa-43" height="23.33333" width="50" y="1690.66675" x="674.00006" stroke="#2D2D2D" fill="#ff0000"/>
 </g>
</svg>